<svg width="315" height="315" viewBox="0 0 315 315" fill="none" xmlns="http://www.w3.org/2000/svg">
<path opacity="0.7" d="M42.7959 105.267C42.7959 105.267 25.2315 150.627 49.9149 196.302C74.5983 241.977 125.439 266.106 166.131 286.738C206.823 307.371 249.077 297.322 269.155 263.529C289.233 229.736 261.696 205.613 261.658 157.424C261.62 109.236 268.871 96.4782 242.758 55.7676C216.644 15.057 152.63 6.04171 104.221 36.2376C55.8117 66.4335 42.7959 105.267 42.7959 105.267Z" fill="white"/>
<path d="M12.4614 176.532C9.20551 161.472 10.6141 145.777 16.4997 131.538C24.57 111.617 41.8698 97.4673 61.2612 89.208C89.4474 77.238 117.117 76.9797 140.011 53.4618C147.073 46.2042 153.008 37.8945 160.222 30.7818C181.516 9.828 212.675 12.3669 235.941 28.9863C284.451 63.6363 301.94 132.306 299.237 189.044C298.028 214.515 285.869 238.222 266.622 254.93C223.096 292.729 149.19 286.367 99.1935 266.635C61.9353 251.937 21.2184 217.621 12.4614 176.532Z" fill="#38505C"/>
<path d="M158.092 67.3911V71.5743" stroke="#263238" stroke-width="1.10721" stroke-linecap="round" stroke-linejoin="round"/>
<path d="M158.092 76.0914V82.8639" stroke="#263238" stroke-width="1.10721" stroke-linecap="round" stroke-linejoin="round" stroke-dasharray="7.17 7.17"/>
<path d="M158.092 85.1193V89.3025" stroke="#263238" stroke-width="1.10721" stroke-linecap="round" stroke-linejoin="round"/>
<path d="M224.853 138.209H220.67" stroke="#263238" stroke-width="1.10721" stroke-linecap="round" stroke-linejoin="round"/>
<path d="M216.153 138.209H209.38" stroke="#263238" stroke-width="1.10721" stroke-linecap="round" stroke-linejoin="round" stroke-dasharray="7.17 7.17"/>
<path d="M207.125 138.209H202.942" stroke="#263238" stroke-width="1.10721" stroke-linecap="round" stroke-linejoin="round"/>
<path d="M113.249 138.209H109.059" stroke="#263238" stroke-width="1.10721" stroke-linecap="round" stroke-linejoin="round"/>
<path d="M104.549 138.209H97.776" stroke="#263238" stroke-width="1.10721" stroke-linecap="round" stroke-linejoin="round" stroke-dasharray="7.17 7.17"/>
<path d="M95.5206 138.209H91.3311" stroke="#263238" stroke-width="1.10721" stroke-linecap="round" stroke-linejoin="round"/>
<path d="M273.42 152.397C273.42 152.105 273.536 151.824 273.743 151.617C273.95 151.411 274.23 151.294 274.523 151.294C274.815 151.294 275.095 151.411 275.302 151.617C275.509 151.824 275.625 152.105 275.625 152.397V154.804C275.625 155.096 275.509 155.376 275.302 155.583C275.095 155.79 274.815 155.906 274.523 155.906C274.23 155.906 273.95 155.79 273.743 155.583C273.536 155.376 273.42 155.096 273.42 154.804V152.397ZM274.145 154.848C274.145 155.175 274.289 155.301 274.523 155.301C274.756 155.301 274.894 155.175 274.894 154.848V152.328C274.894 152 274.749 151.874 274.523 151.874C274.296 151.874 274.145 152 274.145 152.328V154.848Z" fill="#263238"/>
<path d="M273.937 158.47C274.118 158.493 274.301 158.445 274.448 158.337C274.596 158.23 274.697 158.07 274.73 157.891H275.222V162.54H274.497V159.018H273.937V158.47Z" fill="#263238"/>
<path d="M273.42 165.596C273.42 165.303 273.536 165.023 273.743 164.816C273.95 164.609 274.23 164.493 274.523 164.493C274.815 164.493 275.095 164.609 275.302 164.816C275.509 165.023 275.625 165.303 275.625 165.596V167.996C275.625 168.288 275.509 168.569 275.302 168.775C275.095 168.982 274.815 169.098 274.523 169.098C274.23 169.098 273.95 168.982 273.743 168.775C273.536 168.569 273.42 168.288 273.42 167.996V165.596ZM274.145 168.046C274.145 168.374 274.289 168.5 274.523 168.5C274.756 168.5 274.894 168.374 274.894 168.046V165.526C274.894 165.192 274.749 165.073 274.523 165.073C274.296 165.073 274.145 165.192 274.145 165.526V168.046Z" fill="#263238"/>
<path d="M273.937 171.669C274.118 171.691 274.301 171.644 274.448 171.536C274.596 171.428 274.697 171.269 274.73 171.089H275.222V175.701H274.497V172.179H273.937V171.669Z" fill="#263238"/>
<path d="M273.42 178.794C273.42 178.502 273.536 178.221 273.743 178.014C273.95 177.808 274.23 177.691 274.523 177.691C274.815 177.691 275.095 177.808 275.302 178.014C275.509 178.221 275.625 178.502 275.625 178.794V181.194C275.625 181.487 275.509 181.767 275.302 181.974C275.095 182.181 274.815 182.297 274.523 182.297C274.23 182.297 273.95 182.181 273.743 181.974C273.536 181.767 273.42 181.487 273.42 181.194V178.794ZM274.145 181.238C274.145 181.572 274.289 181.692 274.523 181.692C274.756 181.692 274.894 181.572 274.894 181.238V178.718C274.894 178.391 274.749 178.265 274.523 178.265C274.296 178.265 274.145 178.391 274.145 178.718V181.238Z" fill="#263238"/>
<path d="M273.937 184.861C274.118 184.883 274.301 184.836 274.448 184.728C274.596 184.62 274.697 184.461 274.73 184.281H275.222V188.899H274.497V185.378H273.937V184.861Z" fill="#263238"/>
<path d="M273.42 191.986C273.42 191.694 273.536 191.413 273.743 191.207C273.95 191 274.23 190.884 274.523 190.884C274.815 190.884 275.095 191 275.302 191.207C275.509 191.413 275.625 191.694 275.625 191.986V194.393C275.625 194.685 275.509 194.966 275.302 195.172C275.095 195.379 274.815 195.495 274.523 195.495C274.23 195.495 273.95 195.379 273.743 195.172C273.536 194.966 273.42 194.685 273.42 194.393V191.986ZM274.145 194.437C274.145 194.765 274.289 194.891 274.523 194.891C274.756 194.891 274.894 194.765 274.894 194.437V191.917C274.894 191.589 274.749 191.463 274.523 191.463C274.296 191.463 274.145 191.589 274.145 191.917V194.437Z" fill="#263238"/>
<path d="M273.42 198.589C273.42 198.296 273.536 198.016 273.743 197.809C273.95 197.602 274.23 197.486 274.523 197.486C274.815 197.486 275.095 197.602 275.302 197.809C275.509 198.016 275.625 198.296 275.625 198.589V200.97C275.625 201.262 275.509 201.543 275.302 201.75C275.095 201.956 274.815 202.072 274.523 202.072C274.23 202.072 273.95 201.956 273.743 201.75C273.536 201.543 273.42 201.262 273.42 200.97V198.589ZM274.145 201.033C274.145 201.367 274.289 201.487 274.523 201.487C274.756 201.487 274.894 201.367 274.894 201.033V198.513C274.894 198.179 274.749 198.053 274.523 198.053C274.296 198.053 274.145 198.179 274.145 198.513V201.033Z" fill="#263238"/>
<path d="M273.42 205.185C273.42 204.892 273.536 204.612 273.743 204.405C273.95 204.198 274.23 204.082 274.523 204.082C274.815 204.082 275.095 204.198 275.302 204.405C275.509 204.612 275.625 204.892 275.625 205.185V207.585C275.625 207.877 275.509 208.158 275.302 208.365C275.095 208.571 274.815 208.688 274.523 208.688C274.23 208.688 273.95 208.571 273.743 208.365C273.536 208.158 273.42 207.877 273.42 207.585V205.185ZM274.145 207.635C274.145 207.963 274.289 208.089 274.523 208.089C274.756 208.089 274.894 207.963 274.894 207.635V205.115C274.894 204.788 274.749 204.662 274.523 204.662C274.296 204.662 274.145 204.788 274.145 205.115V207.635Z" fill="#263238"/>
<path d="M273.937 217.854C274.118 217.876 274.301 217.829 274.448 217.721C274.596 217.614 274.697 217.454 274.73 217.274H275.222V221.892H274.497V218.371H273.937V217.854Z" fill="#263238"/>
<path d="M273.937 224.456C274.119 224.48 274.304 224.432 274.452 224.323C274.599 224.214 274.699 224.052 274.73 223.87H275.222V228.488H274.497V224.967H273.937V224.456Z" fill="#263238"/>
<path d="M273.937 231.053C274.118 231.075 274.301 231.027 274.448 230.92C274.596 230.812 274.697 230.652 274.73 230.473H275.222V235.085H274.497V231.569H273.937V231.053Z" fill="#263238"/>
<path d="M273.42 238.178C273.42 237.885 273.536 237.605 273.743 237.398C273.95 237.191 274.23 237.075 274.523 237.075C274.815 237.075 275.095 237.191 275.302 237.398C275.509 237.605 275.625 237.885 275.625 238.178V240.578C275.625 240.871 275.509 241.151 275.302 241.358C275.095 241.564 274.815 241.681 274.523 241.681C274.23 241.681 273.95 241.564 273.743 241.358C273.536 241.151 273.42 240.871 273.42 240.578V238.178ZM274.145 240.622C274.145 240.956 274.289 241.076 274.523 241.076C274.756 241.076 274.894 240.956 274.894 240.622V238.14C274.894 237.806 274.749 237.68 274.523 237.68C274.296 237.68 274.145 237.806 274.145 238.14V240.622Z" fill="#263238"/>
<path d="M273.42 244.774C273.42 244.481 273.536 244.201 273.743 243.994C273.95 243.788 274.23 243.671 274.523 243.671C274.815 243.671 275.095 243.788 275.302 243.994C275.509 244.201 275.625 244.481 275.625 244.774V247.174C275.625 247.467 275.509 247.747 275.302 247.954C275.095 248.161 274.815 248.277 274.523 248.277C274.23 248.277 273.95 248.161 273.743 247.954C273.536 247.747 273.42 247.467 273.42 247.174V244.774ZM274.145 247.225C274.145 247.552 274.289 247.678 274.523 247.678C274.756 247.678 274.894 247.552 274.894 247.225V244.705C274.894 244.377 274.749 244.251 274.523 244.251C274.296 244.251 274.145 244.377 274.145 244.705V247.225Z" fill="#263238"/>
<path d="M273.937 250.847C274.118 250.87 274.301 250.822 274.448 250.714C274.596 250.607 274.697 250.447 274.73 250.268H275.222V254.879H274.497V251.37H273.937V250.847Z" fill="#263238"/>
<path d="M277.83 145.272C278.012 145.294 278.196 145.247 278.344 145.139C278.493 145.032 278.595 144.872 278.63 144.692H279.115V149.31H278.391V145.788H277.83V145.272Z" fill="#263238"/>
<path d="M277.83 151.874C278.012 151.897 278.196 151.849 278.344 151.742C278.493 151.634 278.595 151.474 278.63 151.294H279.115V155.906H278.391V152.384H277.83V151.874Z" fill="#263238"/>
<path d="M277.351 165.596C277.34 165.444 277.36 165.292 277.41 165.149C277.46 165.005 277.539 164.874 277.642 164.763C277.745 164.651 277.87 164.563 278.009 164.502C278.149 164.441 278.299 164.41 278.451 164.41C278.602 164.41 278.753 164.441 278.892 164.502C279.031 164.563 279.156 164.651 279.259 164.763C279.362 164.874 279.441 165.005 279.491 165.149C279.541 165.292 279.561 165.444 279.55 165.596V167.996C279.561 168.147 279.541 168.299 279.491 168.443C279.441 168.586 279.362 168.717 279.259 168.829C279.156 168.94 279.031 169.029 278.892 169.09C278.753 169.15 278.602 169.182 278.451 169.182C278.299 169.182 278.149 169.15 278.009 169.09C277.87 169.029 277.745 168.94 277.642 168.829C277.539 168.717 277.46 168.586 277.41 168.443C277.36 168.299 277.34 168.147 277.351 167.996V165.596ZM278.076 168.046C278.076 168.374 278.221 168.5 278.447 168.5C278.674 168.5 278.825 168.374 278.825 168.046V165.526C278.825 165.192 278.68 165.073 278.447 165.073C278.214 165.073 278.076 165.192 278.076 165.526V168.046Z" fill="#263238"/>
<path d="M277.83 184.861C278.012 184.883 278.196 184.836 278.344 184.729C278.493 184.621 278.595 184.461 278.63 184.281H279.115V188.899H278.391V185.378H277.83V184.861Z" fill="#263238"/>
<path d="M277.351 191.986C277.34 191.835 277.36 191.683 277.41 191.539C277.46 191.396 277.539 191.265 277.642 191.153C277.745 191.042 277.87 190.953 278.009 190.892C278.149 190.832 278.299 190.8 278.451 190.8C278.602 190.8 278.753 190.832 278.892 190.892C279.031 190.953 279.156 191.042 279.259 191.153C279.362 191.265 279.441 191.396 279.491 191.539C279.541 191.683 279.561 191.835 279.55 191.986V194.393C279.561 194.544 279.541 194.696 279.491 194.84C279.441 194.983 279.362 195.114 279.259 195.226C279.156 195.337 279.031 195.426 278.892 195.486C278.753 195.547 278.602 195.579 278.451 195.579C278.299 195.579 278.149 195.547 278.009 195.486C277.87 195.426 277.745 195.337 277.642 195.226C277.539 195.114 277.46 194.983 277.41 194.84C277.36 194.696 277.34 194.544 277.351 194.393V191.986ZM278.076 194.437C278.076 194.764 278.221 194.89 278.447 194.89C278.674 194.89 278.825 194.764 278.825 194.437V191.917C278.825 191.589 278.68 191.463 278.447 191.463C278.214 191.463 278.076 191.589 278.076 191.917V194.437Z" fill="#263238"/>
<path d="M277.83 198.059C278.012 198.082 278.196 198.035 278.344 197.927C278.493 197.82 278.595 197.66 278.63 197.48H279.115V202.098H278.391V198.576H277.83V198.059Z" fill="#263238"/>
<path d="M277.83 204.656C278.012 204.68 278.197 204.633 278.346 204.525C278.494 204.417 278.596 204.257 278.63 204.076H279.115V208.694H278.391V205.172H277.83V204.656Z" fill="#263238"/>
<path d="M277.83 211.258C278.012 211.28 278.196 211.233 278.344 211.126C278.493 211.018 278.595 210.858 278.63 210.678H279.115V215.29H278.391V211.768H277.83V211.258Z" fill="#263238"/>
<path d="M277.351 218.383C277.34 218.232 277.36 218.08 277.41 217.936C277.46 217.793 277.539 217.662 277.642 217.55C277.745 217.439 277.87 217.35 278.009 217.29C278.149 217.229 278.299 217.197 278.451 217.197C278.602 217.197 278.753 217.229 278.892 217.29C279.031 217.35 279.156 217.439 279.259 217.55C279.362 217.662 279.441 217.793 279.491 217.936C279.541 218.08 279.561 218.232 279.55 218.383V220.784C279.561 220.935 279.541 221.087 279.491 221.23C279.441 221.374 279.362 221.505 279.259 221.616C279.156 221.728 279.031 221.816 278.892 221.877C278.753 221.938 278.602 221.969 278.451 221.969C278.299 221.969 278.149 221.938 278.009 221.877C277.87 221.816 277.745 221.728 277.642 221.616C277.539 221.505 277.46 221.374 277.41 221.23C277.36 221.087 277.34 220.935 277.351 220.784V218.383ZM278.076 220.828C278.076 221.162 278.221 221.281 278.447 221.281C278.674 221.281 278.825 221.162 278.825 220.828V218.339C278.825 218.005 278.68 217.879 278.447 217.879C278.214 217.879 278.076 218.005 278.076 218.339V220.828Z" fill="#263238"/>
<path d="M277.351 224.979C277.34 224.828 277.36 224.676 277.41 224.533C277.46 224.389 277.539 224.258 277.642 224.146C277.745 224.035 277.87 223.946 278.009 223.886C278.149 223.825 278.299 223.794 278.451 223.794C278.602 223.794 278.753 223.825 278.892 223.886C279.031 223.946 279.156 224.035 279.259 224.146C279.362 224.258 279.441 224.389 279.491 224.533C279.541 224.676 279.561 224.828 279.55 224.979V227.38C279.561 227.531 279.541 227.683 279.491 227.826C279.441 227.97 279.362 228.101 279.259 228.212C279.156 228.324 279.031 228.413 278.892 228.473C278.753 228.534 278.602 228.565 278.451 228.565C278.299 228.565 278.149 228.534 278.009 228.473C277.87 228.413 277.745 228.324 277.642 228.212C277.539 228.101 277.46 227.97 277.41 227.826C277.36 227.683 277.34 227.531 277.351 227.38V224.979ZM278.076 227.43C278.076 227.758 278.221 227.884 278.447 227.884C278.674 227.884 278.825 227.758 278.825 227.43V224.91C278.825 224.582 278.68 224.456 278.447 224.456C278.214 224.456 278.076 224.582 278.076 224.91V227.43Z" fill="#263238"/>
<path d="M270.012 184.861C270.194 184.883 270.377 184.836 270.526 184.729C270.674 184.621 270.777 184.461 270.812 184.281H271.297V188.899H270.572V185.378H270.012V184.861Z" fill="#263238"/>
<path d="M269.501 191.986C269.501 191.694 269.618 191.413 269.824 191.207C270.031 191 270.312 190.884 270.604 190.884C270.896 190.884 271.177 191 271.384 191.207C271.59 191.413 271.706 191.694 271.706 191.986V194.393C271.706 194.685 271.59 194.966 271.384 195.172C271.177 195.379 270.896 195.495 270.604 195.495C270.312 195.495 270.031 195.379 269.824 195.172C269.618 194.966 269.501 194.685 269.501 194.393V191.986ZM270.226 194.437C270.226 194.765 270.371 194.891 270.604 194.891C270.837 194.891 270.982 194.765 270.982 194.437V191.917C270.982 191.589 270.837 191.463 270.604 191.463C270.371 191.463 270.226 191.589 270.226 191.917V194.437Z" fill="#263238"/>
<path d="M269.501 198.589C269.501 198.296 269.618 198.016 269.824 197.809C270.031 197.602 270.312 197.486 270.604 197.486C270.896 197.486 271.177 197.602 271.384 197.809C271.59 198.016 271.706 198.296 271.706 198.589V200.97C271.706 201.262 271.59 201.543 271.384 201.75C271.177 201.956 270.896 202.072 270.604 202.072C270.312 202.072 270.031 201.956 269.824 201.75C269.618 201.543 269.501 201.262 269.501 200.97V198.589ZM270.226 201.033C270.226 201.367 270.371 201.487 270.604 201.487C270.837 201.487 270.982 201.367 270.982 201.033V198.513C270.982 198.179 270.837 198.053 270.604 198.053C270.371 198.053 270.226 198.179 270.226 198.513V201.033Z" fill="#263238"/>
<path d="M270.012 204.656C270.194 204.68 270.378 204.633 270.527 204.525C270.676 204.417 270.778 204.257 270.812 204.076H271.297V208.694H270.572V205.172H270.012V204.656Z" fill="#263238"/>
<path d="M270.012 217.854C270.194 217.877 270.377 217.829 270.526 217.722C270.674 217.614 270.777 217.454 270.812 217.274H271.297V221.892H270.572V218.371H270.012V217.854Z" fill="#263238"/>
<path d="M270.012 224.456C270.195 224.479 270.379 224.431 270.528 224.322C270.676 224.213 270.778 224.052 270.812 223.87H271.297V228.488H270.572V224.967H270.012V224.456Z" fill="#263238"/>
<path d="M270.012 231.053C270.194 231.075 270.377 231.028 270.526 230.92C270.674 230.813 270.777 230.653 270.812 230.473H271.297V235.085H270.572V231.569H270.012V231.053Z" fill="#263238"/>
<path d="M265.583 165.596C265.571 165.444 265.591 165.292 265.641 165.149C265.691 165.005 265.77 164.874 265.874 164.763C265.977 164.651 266.102 164.563 266.241 164.502C266.38 164.441 266.53 164.41 266.682 164.41C266.834 164.41 266.984 164.441 267.123 164.502C267.262 164.563 267.387 164.651 267.491 164.763C267.594 164.874 267.673 165.005 267.723 165.149C267.773 165.292 267.793 165.444 267.781 165.596V167.996C267.793 168.147 267.773 168.299 267.723 168.443C267.673 168.586 267.594 168.717 267.491 168.829C267.387 168.94 267.262 169.029 267.123 169.09C266.984 169.15 266.834 169.182 266.682 169.182C266.53 169.182 266.38 169.15 266.241 169.09C266.102 169.029 265.977 168.94 265.874 168.829C265.77 168.717 265.691 168.586 265.641 168.443C265.591 168.299 265.571 168.147 265.583 167.996V165.596ZM266.307 168.046C266.307 168.374 266.452 168.5 266.679 168.5C266.906 168.5 267.057 168.374 267.057 168.046V165.526C267.057 165.192 266.912 165.073 266.679 165.073C266.446 165.073 266.307 165.192 266.307 165.526V168.046Z" fill="#263238"/>
<path d="M265.583 178.794C265.571 178.643 265.591 178.491 265.641 178.347C265.691 178.204 265.77 178.072 265.874 177.961C265.977 177.85 266.102 177.761 266.241 177.7C266.38 177.64 266.53 177.608 266.682 177.608C266.834 177.608 266.984 177.64 267.123 177.7C267.262 177.761 267.387 177.85 267.491 177.961C267.594 178.072 267.673 178.204 267.723 178.347C267.773 178.491 267.793 178.643 267.781 178.794V181.194C267.793 181.346 267.773 181.498 267.723 181.641C267.673 181.784 267.594 181.916 267.491 182.027C267.387 182.138 267.262 182.227 267.123 182.288C266.984 182.349 266.834 182.38 266.682 182.38C266.53 182.38 266.38 182.349 266.241 182.288C266.102 182.227 265.977 182.138 265.874 182.027C265.77 181.916 265.691 181.784 265.641 181.641C265.591 181.498 265.571 181.346 265.583 181.194V178.794ZM266.307 181.238C266.307 181.572 266.452 181.692 266.679 181.692C266.906 181.692 267.057 181.572 267.057 181.238V178.718C267.057 178.391 266.912 178.265 266.679 178.265C266.446 178.265 266.307 178.391 266.307 178.718V181.238Z" fill="#263238"/>
<path d="M266.087 198.059C266.269 198.082 266.452 198.035 266.601 197.927C266.749 197.82 266.852 197.66 266.887 197.48H267.372V202.098H266.648V198.576H266.087V198.059Z" fill="#263238"/>
<path d="M266.087 204.656C266.269 204.68 266.454 204.633 266.602 204.525C266.751 204.417 266.853 204.257 266.887 204.076H267.372V208.694H266.648V205.172H266.087V204.656Z" fill="#263238"/>
<path d="M266.087 224.456C266.27 224.479 266.454 224.431 266.603 224.322C266.751 224.213 266.853 224.052 266.887 223.87H267.372V228.488H266.648V224.967H266.087V224.456Z" fill="#263238"/>
<path d="M265.583 231.582C265.571 231.43 265.591 231.278 265.641 231.135C265.691 230.992 265.77 230.86 265.874 230.749C265.977 230.638 266.102 230.549 266.241 230.488C266.38 230.427 266.53 230.396 266.682 230.396C266.834 230.396 266.984 230.427 267.123 230.488C267.262 230.549 267.387 230.638 267.491 230.749C267.594 230.86 267.673 230.992 267.723 231.135C267.773 231.278 267.793 231.43 267.781 231.582V233.982C267.793 234.133 267.773 234.285 267.723 234.429C267.673 234.572 267.594 234.704 267.491 234.815C267.387 234.926 267.262 235.015 267.123 235.076C266.984 235.136 266.834 235.168 266.682 235.168C266.53 235.168 266.38 235.136 266.241 235.076C266.102 235.015 265.977 234.926 265.874 234.815C265.77 234.704 265.691 234.572 265.641 234.429C265.591 234.285 265.571 234.133 265.583 233.982V231.582ZM266.307 234.026C266.307 234.354 266.452 234.48 266.679 234.48C266.906 234.48 267.057 234.354 267.057 234.026V231.506C267.057 231.178 266.912 231.052 266.679 231.052C266.446 231.052 266.307 231.178 266.307 231.506V234.026Z" fill="#263238"/>
<path d="M266.087 237.649C266.269 237.671 266.452 237.624 266.601 237.516C266.749 237.409 266.852 237.249 266.887 237.069H267.372V241.687H266.648V238.14H266.087V237.649Z" fill="#263238"/>
<path d="M103.15 172.62C103.15 172.328 103.266 172.047 103.473 171.84C103.68 171.634 103.96 171.518 104.252 171.518C104.545 171.518 104.825 171.634 105.032 171.84C105.239 172.047 105.355 172.328 105.355 172.62V175.02C105.355 175.313 105.239 175.593 105.032 175.8C104.825 176.007 104.545 176.123 104.252 176.123C103.96 176.123 103.68 176.007 103.473 175.8C103.266 175.593 103.15 175.313 103.15 175.02V172.62ZM103.874 175.064C103.874 175.398 104.019 175.524 104.252 175.524C104.486 175.524 104.624 175.398 104.624 175.064V172.544C104.624 172.211 104.479 172.085 104.252 172.085C104.026 172.085 103.874 172.211 103.874 172.544V175.064Z" fill="#263238"/>
<path d="M103.15 179.235C103.15 178.943 103.266 178.662 103.473 178.455C103.68 178.249 103.96 178.133 104.252 178.133C104.545 178.133 104.825 178.249 105.032 178.455C105.239 178.662 105.355 178.943 105.355 179.235V181.635C105.355 181.928 105.239 182.208 105.032 182.415C104.825 182.622 104.545 182.738 104.252 182.738C103.96 182.738 103.68 182.622 103.473 182.415C103.266 182.208 103.15 181.928 103.15 181.635V179.235ZM103.874 181.686C103.874 182.013 104.019 182.139 104.252 182.139C104.486 182.139 104.624 182.013 104.624 181.686V179.166C104.624 178.838 104.479 178.712 104.252 178.712C104.026 178.712 103.874 178.838 103.874 179.166V181.686Z" fill="#263238"/>
<path d="M103.66 185.308C103.841 185.331 104.024 185.283 104.172 185.175C104.319 185.068 104.42 184.908 104.454 184.729H104.945V189.346H104.221V185.85H103.66V185.308Z" fill="#263238"/>
<path d="M103.15 192.434C103.15 192.141 103.266 191.861 103.473 191.654C103.68 191.447 103.96 191.331 104.252 191.331C104.545 191.331 104.825 191.447 105.032 191.654C105.239 191.861 105.355 192.141 105.355 192.434V194.834C105.355 195.126 105.239 195.407 105.032 195.613C104.825 195.82 104.545 195.936 104.252 195.936C103.96 195.936 103.68 195.82 103.473 195.613C103.266 195.407 103.15 195.126 103.15 194.834V192.434ZM103.874 194.878C103.874 195.212 104.019 195.338 104.252 195.338C104.486 195.338 104.624 195.212 104.624 194.878V192.389C104.624 192.056 104.479 191.93 104.252 191.93C104.026 191.93 103.874 192.056 103.874 192.389V194.878Z" fill="#263238"/>
<path d="M103.66 198.507C103.841 198.529 104.024 198.482 104.172 198.374C104.319 198.266 104.42 198.107 104.454 197.927H104.945V202.539H104.221V199.017H103.66V198.507Z" fill="#263238"/>
<path d="M103.15 205.632C103.15 205.34 103.266 205.059 103.473 204.852C103.68 204.646 103.96 204.529 104.252 204.529C104.545 204.529 104.825 204.646 105.032 204.852C105.239 205.059 105.355 205.34 105.355 205.632V208.032C105.355 208.325 105.239 208.605 105.032 208.812C104.825 209.019 104.545 209.135 104.252 209.135C103.96 209.135 103.68 209.019 103.473 208.812C103.266 208.605 103.15 208.325 103.15 208.032V205.632ZM103.874 208.076C103.874 208.404 104.019 208.53 104.252 208.53C104.486 208.53 104.624 208.404 104.624 208.076V205.556C104.624 205.229 104.479 205.103 104.252 205.103C104.026 205.103 103.874 205.229 103.874 205.556V208.076Z" fill="#263238"/>
<path d="M103.66 211.68C103.841 211.702 104.024 211.655 104.172 211.547C104.319 211.44 104.42 211.28 104.454 211.1H104.945V215.718H104.221V212.197H103.66V211.68Z" fill="#263238"/>
<path d="M103.15 218.824C103.15 218.532 103.266 218.251 103.473 218.045C103.68 217.838 103.96 217.722 104.252 217.722C104.545 217.722 104.825 217.838 105.032 218.045C105.239 218.251 105.355 218.532 105.355 218.824V221.224C105.355 221.517 105.239 221.797 105.032 222.004C104.825 222.211 104.545 222.327 104.252 222.327C103.96 222.327 103.68 222.211 103.473 222.004C103.266 221.797 103.15 221.517 103.15 221.224V218.824ZM103.874 221.275C103.874 221.602 104.019 221.728 104.252 221.728C104.486 221.728 104.624 221.602 104.624 221.275V218.755C104.624 218.427 104.479 218.301 104.252 218.301C104.026 218.301 103.874 218.427 103.874 218.755V221.275Z" fill="#263238"/>
<path d="M103.15 225.427C103.15 225.134 103.266 224.854 103.473 224.647C103.68 224.44 103.96 224.324 104.252 224.324C104.545 224.324 104.825 224.44 105.032 224.647C105.239 224.854 105.355 225.134 105.355 225.427V227.827C105.355 228.119 105.239 228.4 105.032 228.606C104.825 228.813 104.545 228.929 104.252 228.929C103.96 228.929 103.68 228.813 103.473 228.606C103.266 228.4 103.15 228.119 103.15 227.827V225.427ZM103.874 227.871C103.874 228.199 104.019 228.325 104.252 228.325C104.486 228.325 104.624 228.199 104.624 227.871V225.351C104.624 225.023 104.479 224.897 104.252 224.897C104.026 224.897 103.874 225.023 103.874 225.351V227.871Z" fill="#263238"/>
<path d="M103.15 232.023C103.15 231.73 103.266 231.45 103.473 231.243C103.68 231.036 103.96 230.92 104.252 230.92C104.545 230.92 104.825 231.036 105.032 231.243C105.239 231.45 105.355 231.73 105.355 232.023V234.423C105.355 234.715 105.239 234.996 105.032 235.203C104.825 235.409 104.545 235.525 104.252 235.525C103.96 235.525 103.68 235.409 103.473 235.203C103.266 234.996 103.15 234.715 103.15 234.423V232.023ZM103.874 234.467C103.874 234.801 104.019 234.927 104.252 234.927C104.486 234.927 104.624 234.801 104.624 234.467V231.979C104.624 231.645 104.479 231.525 104.252 231.525C104.026 231.525 103.874 231.645 103.874 231.979V234.467Z" fill="#263238"/>
<path d="M103.66 238.096C103.841 238.118 104.024 238.071 104.172 237.963C104.319 237.855 104.42 237.696 104.454 237.516H104.945V242.128H104.221V238.606H103.66V238.096Z" fill="#263238"/>
<path d="M103.66 244.692C103.841 244.714 104.024 244.667 104.172 244.559C104.319 244.452 104.42 244.292 104.454 244.112H104.945V248.73H104.221V245.209H103.66V244.692Z" fill="#263238"/>
<path d="M103.66 251.288C103.841 251.311 104.024 251.263 104.172 251.155C104.319 251.048 104.42 250.888 104.454 250.709H104.945V255.326H104.221V251.805H103.66V251.288Z" fill="#263238"/>
<path d="M103.66 257.891C103.841 257.913 104.024 257.865 104.172 257.758C104.319 257.65 104.42 257.49 104.454 257.311H104.945V261.923H104.221V258.401H103.66V257.891Z" fill="#263238"/>
<path d="M103.874 267.46C103.874 267.794 104.019 267.914 104.252 267.914C104.485 267.914 104.624 267.794 104.624 267.46V264.94C104.624 264.613 104.479 264.487 104.252 264.487C104.026 264.487 103.874 264.613 103.874 264.94V267.46Z" fill="#263238"/>
<path d="M107.579 198.507C107.761 198.529 107.945 198.482 108.093 198.374C108.242 198.267 108.344 198.107 108.379 197.927H108.864V202.539H108.14V199.017H107.579V198.507Z" fill="#263238"/>
<path d="M107.579 205.103C107.761 205.125 107.945 205.078 108.093 204.971C108.242 204.863 108.344 204.703 108.379 204.523H108.864V209.16H108.14V205.638H107.579V205.103Z" fill="#263238"/>
<path d="M107.1 218.824C107.088 218.673 107.108 218.521 107.158 218.377C107.208 218.234 107.288 218.103 107.391 217.991C107.494 217.88 107.619 217.791 107.758 217.73C107.897 217.67 108.047 217.638 108.199 217.638C108.351 217.638 108.501 217.67 108.64 217.73C108.78 217.791 108.905 217.88 109.008 217.991C109.111 218.103 109.19 218.234 109.24 218.377C109.29 218.521 109.31 218.673 109.299 218.824V221.224C109.31 221.376 109.29 221.528 109.24 221.671C109.19 221.815 109.111 221.946 109.008 222.057C108.905 222.169 108.78 222.257 108.64 222.318C108.501 222.379 108.351 222.41 108.199 222.41C108.047 222.41 107.897 222.379 107.758 222.318C107.619 222.257 107.494 222.169 107.391 222.057C107.288 221.946 107.208 221.815 107.158 221.671C107.108 221.528 107.088 221.376 107.1 221.224V218.824ZM107.824 221.275C107.824 221.602 107.969 221.728 108.196 221.728C108.423 221.728 108.574 221.602 108.574 221.275V218.755C108.574 218.427 108.429 218.301 108.196 218.301C107.963 218.301 107.824 218.427 107.824 218.755V221.275Z" fill="#263238"/>
<path d="M107.579 224.91C107.761 224.933 107.945 224.885 108.093 224.778C108.242 224.67 108.344 224.51 108.379 224.33H108.864V228.948H108.14V225.414H107.579V224.91Z" fill="#263238"/>
<path d="M107.1 232.023C107.088 231.871 107.108 231.719 107.158 231.576C107.208 231.433 107.288 231.301 107.391 231.19C107.494 231.079 107.619 230.99 107.758 230.929C107.897 230.868 108.047 230.837 108.199 230.837C108.351 230.837 108.501 230.868 108.64 230.929C108.78 230.99 108.905 231.079 109.008 231.19C109.111 231.301 109.19 231.433 109.24 231.576C109.29 231.719 109.31 231.871 109.299 232.023V234.423C109.31 234.574 109.29 234.726 109.24 234.87C109.19 235.013 109.111 235.145 109.008 235.256C108.905 235.367 108.78 235.456 108.64 235.517C108.501 235.577 108.351 235.609 108.199 235.609C108.047 235.609 107.897 235.577 107.758 235.517C107.619 235.456 107.494 235.367 107.391 235.256C107.288 235.145 107.208 235.013 107.158 234.87C107.108 234.726 107.088 234.574 107.1 234.423V232.023ZM107.824 234.467C107.824 234.801 107.969 234.927 108.196 234.927C108.423 234.927 108.574 234.801 108.574 234.467V231.979C108.574 231.645 108.429 231.525 108.196 231.525C107.963 231.525 107.824 231.645 107.824 231.979V234.467Z" fill="#263238"/>
<path d="M107.799 247.666C107.799 247.993 107.944 248.119 108.171 248.119C108.398 248.119 108.549 247.993 108.549 247.666V245.146C108.549 244.818 108.404 244.692 108.171 244.692C107.938 244.692 107.799 244.818 107.799 245.146V247.666Z" fill="#263238"/>
<path d="M107.579 251.288C107.753 251.307 107.929 251.262 108.072 251.161C108.216 251.06 108.318 250.91 108.36 250.74H108.845V255.358H108.121V251.836H107.56L107.579 251.288Z" fill="#263238"/>
<path d="M107.579 257.891C107.761 257.913 107.945 257.866 108.093 257.758C108.242 257.651 108.344 257.491 108.379 257.311H108.864V261.923H108.14V258.401H107.579V257.891Z" fill="#263238"/>
<path d="M107.1 278.208C107.088 278.057 107.108 277.905 107.158 277.761C107.208 277.618 107.288 277.486 107.391 277.375C107.494 277.264 107.619 277.175 107.758 277.114C107.897 277.054 108.047 277.022 108.199 277.022C108.351 277.022 108.501 277.054 108.64 277.114C108.78 277.175 108.905 277.264 109.008 277.375C109.111 277.486 109.19 277.618 109.24 277.761C109.29 277.905 109.31 278.057 109.299 278.208V280.615C109.31 280.766 109.29 280.918 109.24 281.061C109.19 281.205 109.111 281.336 109.008 281.447C108.905 281.559 108.78 281.648 108.64 281.708C108.501 281.769 108.351 281.8 108.199 281.8C108.047 281.8 107.897 281.769 107.758 281.708C107.619 281.648 107.494 281.559 107.391 281.447C107.288 281.336 107.208 281.205 107.158 281.061C107.108 280.918 107.088 280.766 107.1 280.615V278.208ZM107.824 280.659C107.824 280.986 107.969 281.112 108.196 281.112C108.423 281.112 108.574 280.986 108.574 280.659V278.139C108.574 277.811 108.429 277.685 108.196 277.685C107.963 277.685 107.824 277.811 107.824 278.139V280.659Z" fill="#263238"/>
<path d="M99.225 192.434C99.225 192.141 99.3411 191.861 99.5479 191.654C99.7546 191.447 100.035 191.331 100.327 191.331C100.62 191.331 100.9 191.447 101.107 191.654C101.314 191.861 101.43 192.141 101.43 192.434V194.834C101.43 195.126 101.314 195.407 101.107 195.613C100.9 195.82 100.62 195.936 100.327 195.936C100.035 195.936 99.7546 195.82 99.5479 195.613C99.3411 195.407 99.225 195.126 99.225 194.834V192.434ZM99.9495 194.878C99.9495 195.212 100.094 195.338 100.327 195.338C100.561 195.338 100.705 195.212 100.705 194.878V192.389C100.705 192.056 100.561 191.93 100.327 191.93C100.094 191.93 99.9495 192.056 99.9495 192.389V194.878Z" fill="#263238"/>
<path d="M99.7354 198.507C99.9173 198.529 100.101 198.482 100.25 198.374C100.398 198.267 100.5 198.107 100.535 197.927H101.021V202.539H100.296V199.017H99.7354V198.507Z" fill="#263238"/>
<path d="M99.7354 205.103C99.9173 205.125 100.101 205.078 100.25 204.971C100.398 204.863 100.5 204.703 100.535 204.523H101.021V209.16H100.296V205.638H99.7354V205.103Z" fill="#263238"/>
<path d="M99.225 212.228C99.225 211.936 99.3411 211.655 99.5479 211.449C99.7546 211.242 100.035 211.126 100.327 211.126C100.62 211.126 100.9 211.242 101.107 211.449C101.314 211.655 101.43 211.936 101.43 212.228V214.628C101.43 214.921 101.314 215.201 101.107 215.408C100.9 215.615 100.62 215.731 100.327 215.731C100.035 215.731 99.7546 215.615 99.5479 215.408C99.3411 215.201 99.225 214.921 99.225 214.628V212.228ZM99.9495 214.673C99.9495 215.006 100.094 215.132 100.327 215.132C100.561 215.132 100.705 215.006 100.705 214.673V212.184C100.705 211.85 100.561 211.724 100.327 211.724C100.094 211.724 99.9495 211.85 99.9495 212.184V214.673Z" fill="#263238"/>
<path d="M99.225 225.427C99.225 225.134 99.3411 224.854 99.5479 224.647C99.7546 224.44 100.035 224.324 100.327 224.324C100.62 224.324 100.9 224.44 101.107 224.647C101.314 224.854 101.43 225.134 101.43 225.427V227.827C101.43 228.119 101.314 228.4 101.107 228.606C100.9 228.813 100.62 228.929 100.327 228.929C100.035 228.929 99.7546 228.813 99.5479 228.606C99.3411 228.4 99.225 228.119 99.225 227.827V225.427ZM99.9495 227.871C99.9495 228.199 100.094 228.325 100.327 228.325C100.561 228.325 100.705 228.199 100.705 227.871V225.351C100.705 225.023 100.561 224.897 100.327 224.897C100.094 224.897 99.9495 225.023 99.9495 225.351V227.871Z" fill="#263238"/>
<path d="M99.225 232.023C99.225 231.73 99.3411 231.45 99.5479 231.243C99.7546 231.036 100.035 230.92 100.327 230.92C100.62 230.92 100.9 231.036 101.107 231.243C101.314 231.45 101.43 231.73 101.43 232.023V234.423C101.43 234.715 101.314 234.996 101.107 235.203C100.9 235.409 100.62 235.525 100.327 235.525C100.035 235.525 99.7546 235.409 99.5479 235.203C99.3411 234.996 99.225 234.715 99.225 234.423V232.023ZM99.9495 234.467C99.9495 234.801 100.094 234.927 100.327 234.927C100.561 234.927 100.705 234.801 100.705 234.467V231.979C100.705 231.645 100.561 231.525 100.327 231.525C100.094 231.525 99.9495 231.645 99.9495 231.979V234.467Z" fill="#263238"/>
<path d="M99.7354 238.096C99.9173 238.118 100.101 238.071 100.25 237.964C100.398 237.856 100.5 237.696 100.535 237.516H101.021V242.128H100.296V238.606H99.7354V238.096Z" fill="#263238"/>
<path d="M99.225 245.221C99.225 244.929 99.3411 244.648 99.5479 244.442C99.7546 244.235 100.035 244.119 100.327 244.119C100.62 244.119 100.9 244.235 101.107 244.442C101.314 244.648 101.43 244.929 101.43 245.221V247.622C101.43 247.914 101.314 248.194 101.107 248.401C100.9 248.608 100.62 248.724 100.327 248.724C100.035 248.724 99.7546 248.608 99.5479 248.401C99.3411 248.194 99.225 247.914 99.225 247.622V245.221ZM99.9495 247.666C99.9495 247.993 100.094 248.119 100.327 248.119C100.561 248.119 100.705 247.993 100.705 247.666V245.146C100.705 244.818 100.561 244.692 100.327 244.692C100.094 244.692 99.9495 244.818 99.9495 245.146V247.666Z" fill="#263238"/>
<path d="M99.7354 251.288C99.9173 251.311 100.101 251.263 100.25 251.156C100.398 251.048 100.5 250.888 100.535 250.709H101.021V255.326H100.296V251.805H99.7354V251.288Z" fill="#263238"/>
<path d="M95.3064 179.235C95.2949 179.084 95.3148 178.932 95.3649 178.788C95.4149 178.645 95.494 178.513 95.5972 178.402C95.7004 178.291 95.8255 178.202 95.9646 178.141C96.1038 178.081 96.2539 178.049 96.4057 178.049C96.5575 178.049 96.7077 178.081 96.8468 178.141C96.9859 178.202 97.111 178.291 97.2142 178.402C97.3174 178.513 97.3965 178.645 97.4466 178.788C97.4966 178.932 97.5165 179.084 97.5051 179.235V181.635C97.5165 181.787 97.4966 181.939 97.4466 182.082C97.3965 182.225 97.3174 182.357 97.2142 182.468C97.111 182.579 96.9859 182.668 96.8468 182.729C96.7077 182.79 96.5575 182.821 96.4057 182.821C96.2539 182.821 96.1038 182.79 95.9646 182.729C95.8255 182.668 95.7004 182.579 95.5972 182.468C95.494 182.357 95.4149 182.225 95.3649 182.082C95.3148 181.939 95.2949 181.787 95.3064 181.635V179.235ZM96.0309 181.686C96.0309 182.013 96.1758 182.139 96.4026 182.139C96.6294 182.139 96.7806 182.013 96.7806 181.686V179.166C96.7806 178.838 96.6357 178.712 96.4026 178.712C96.1695 178.712 96.0309 178.838 96.0309 179.166V181.686Z" fill="#263238"/>
<path d="M95.8104 191.904C95.9924 191.927 96.1761 191.88 96.3246 191.772C96.4731 191.664 96.5753 191.505 96.6105 191.325H97.0956V195.93H96.39V192.408H95.8293L95.8104 191.904Z" fill="#263238"/>
<path d="M95.8104 205.103C95.9924 205.125 96.1761 205.078 96.3246 204.971C96.4731 204.863 96.5753 204.703 96.6105 204.523H97.0956V209.16H96.39V205.638H95.8293L95.8104 205.103Z" fill="#263238"/>
<path d="M95.3064 212.228C95.2949 212.077 95.3148 211.925 95.3649 211.781C95.4149 211.638 95.494 211.507 95.5972 211.395C95.7004 211.284 95.8255 211.195 95.9646 211.134C96.1038 211.074 96.2539 211.042 96.4057 211.042C96.5575 211.042 96.7077 211.074 96.8468 211.134C96.9859 211.195 97.111 211.284 97.2142 211.395C97.3174 211.507 97.3965 211.638 97.4466 211.781C97.4966 211.925 97.5165 212.077 97.5051 212.228V214.628C97.5165 214.78 97.4966 214.932 97.4466 215.075C97.3965 215.219 97.3174 215.35 97.2142 215.461C97.111 215.573 96.9859 215.661 96.8468 215.722C96.7077 215.783 96.5575 215.814 96.4057 215.814C96.2539 215.814 96.1038 215.783 95.9646 215.722C95.8255 215.661 95.7004 215.573 95.5972 215.461C95.494 215.35 95.4149 215.219 95.3649 215.075C95.3148 214.932 95.2949 214.78 95.3064 214.628V212.228ZM96.0309 214.679C96.0309 215.006 96.1758 215.132 96.4026 215.132C96.6294 215.132 96.7806 215.006 96.7806 214.679V212.159C96.7806 211.825 96.6357 211.705 96.4026 211.705C96.1695 211.705 96.0309 211.825 96.0309 212.159V214.679Z" fill="#263238"/>
<path d="M95.8104 231.493C95.9924 231.516 96.1761 231.469 96.3246 231.361C96.4731 231.254 96.5753 231.094 96.6105 230.914H97.0956V235.532H96.39V232.01H95.8293L95.8104 231.493Z" fill="#263238"/>
<path d="M95.8104 238.096C95.9924 238.118 96.1761 238.071 96.3246 237.964C96.4731 237.856 96.5753 237.696 96.6105 237.516H97.0956V242.128H96.39V238.606H95.8293L95.8104 238.096Z" fill="#263238"/>
<path d="M95.8104 244.692C95.9924 244.715 96.1761 244.667 96.3246 244.56C96.4731 244.452 96.5753 244.292 96.6105 244.112H97.0956V248.73H96.39V245.209H95.8293L95.8104 244.692Z" fill="#263238"/>
<path d="M218.679 20.5443C218.679 20.2519 218.795 19.9715 219.002 19.7647C219.209 19.558 219.489 19.4418 219.782 19.4418C220.074 19.4418 220.355 19.558 220.561 19.7647C220.768 19.9715 220.884 20.2519 220.884 20.5443V22.9446C220.884 23.237 220.768 23.5174 220.561 23.7242C220.355 23.9309 220.074 24.0471 219.782 24.0471C219.489 24.0471 219.209 23.9309 219.002 23.7242C218.795 23.5174 218.679 23.237 218.679 22.9446V20.5443ZM219.404 22.9887C219.404 23.3163 219.549 23.4423 219.782 23.4423C220.015 23.4423 220.154 23.3163 220.154 22.9887V20.4687C220.154 20.1411 220.009 20.0151 219.782 20.0151C219.555 20.0151 219.404 20.1411 219.404 20.4687V22.9887Z" fill="#263238"/>
<path d="M218.679 27.1404C218.679 26.848 218.795 26.5676 219.002 26.3608C219.209 26.1541 219.489 26.0379 219.782 26.0379C220.074 26.0379 220.355 26.1541 220.561 26.3608C220.768 26.5676 220.884 26.848 220.884 27.1404V29.5407C220.884 29.8331 220.768 30.1135 220.561 30.3203C220.355 30.527 220.074 30.6432 219.782 30.6432C219.489 30.6432 219.209 30.527 219.002 30.3203C218.795 30.1135 218.679 29.8331 218.679 29.5407V27.1404ZM219.404 29.61C219.404 29.9439 219.549 30.0699 219.782 30.0699C220.015 30.0699 220.154 29.9439 220.154 29.61V27.09C220.154 26.7561 220.009 26.6301 219.782 26.6301C219.555 26.6301 219.404 26.7561 219.404 27.09V29.61Z" fill="#263238"/>
<path d="M219.19 46.4058C219.371 46.4282 219.554 46.3807 219.701 46.2731C219.849 46.1654 219.95 46.0056 219.983 45.8262H220.5V50.4441H219.775V46.9224H219.215L219.19 46.4058Z" fill="#263238"/>
<path d="M219.19 53.0082C219.371 53.0306 219.554 52.9831 219.701 52.8754C219.849 52.7678 219.95 52.608 219.983 52.4286H220.5V57.0402H219.775V53.55H219.215L219.19 53.0082Z" fill="#263238"/>
<path d="M218.679 73.3257C218.679 73.0333 218.795 72.7529 219.002 72.5461C219.209 72.3394 219.489 72.2232 219.782 72.2232C220.074 72.2232 220.355 72.3394 220.561 72.5461C220.768 72.7529 220.884 73.0333 220.884 73.3257V75.726C220.884 76.0184 220.768 76.2988 220.561 76.5056C220.355 76.7124 220.074 76.8285 219.782 76.8285C219.489 76.8285 219.209 76.7124 219.002 76.5056C218.795 76.2988 218.679 76.0184 218.679 75.726V73.3257ZM219.404 75.7764C219.404 76.104 219.549 76.23 219.782 76.23C220.015 76.23 220.154 76.104 220.154 75.7764V73.2564C220.154 72.9288 220.009 72.8028 219.782 72.8028C219.555 72.8028 219.404 72.9288 219.404 73.2564V75.7764Z" fill="#263238"/>
<path d="M218.679 86.5242C218.679 86.2318 218.795 85.9514 219.002 85.7446C219.209 85.5379 219.489 85.4217 219.782 85.4217C220.074 85.4217 220.355 85.5379 220.561 85.7446C220.768 85.9514 220.884 86.2318 220.884 86.5242V88.9245C220.884 89.2169 220.768 89.4973 220.561 89.7041C220.355 89.9108 220.074 90.027 219.782 90.027C219.489 90.027 219.209 89.9108 219.002 89.7041C218.795 89.4973 218.679 89.2169 218.679 88.9245V86.5242ZM219.404 88.9686C219.404 89.3025 219.549 89.4285 219.782 89.4285C220.015 89.4285 220.154 89.3025 220.154 88.9686V86.4801C220.154 86.1462 220.009 86.0265 219.782 86.0265C219.555 86.0265 219.404 86.1462 219.404 86.4801V88.9686Z" fill="#263238"/>
<path d="M206.911 33.7365C206.911 33.4441 207.027 33.1637 207.234 32.9569C207.441 32.7502 207.721 32.634 208.013 32.634C208.306 32.634 208.586 32.7502 208.793 32.9569C209 33.1637 209.116 33.4441 209.116 33.7365V36.1368C209.116 36.4292 209 36.7096 208.793 36.9164C208.586 37.1231 208.306 37.2393 208.013 37.2393C207.721 37.2393 207.441 37.1231 207.234 36.9164C207.027 36.7096 206.911 36.4292 206.911 36.1368V33.7365ZM207.635 36.1872C207.635 36.5148 207.78 36.6408 208.013 36.6408C208.246 36.6408 208.385 36.5148 208.385 36.1872V33.6672C208.385 33.3396 208.24 33.2136 208.013 33.2136C207.787 33.2136 207.635 33.3396 207.635 33.6672V36.1872Z" fill="#263238"/>
<path d="M206.911 40.32C206.911 40.0276 207.027 39.7472 207.234 39.5404C207.441 39.3337 207.721 39.2175 208.013 39.2175C208.306 39.2175 208.586 39.3337 208.793 39.5404C209 39.7472 209.116 40.0276 209.116 40.32V42.7203C209.116 43.0127 209 43.2931 208.793 43.4999C208.586 43.7066 208.306 43.8228 208.013 43.8228C207.721 43.8228 207.441 43.7066 207.234 43.4999C207.027 43.2931 206.911 43.0127 206.911 42.7203V40.32ZM207.635 42.7644C207.635 43.092 207.78 43.218 208.013 43.218C208.246 43.218 208.385 43.092 208.385 42.7644V40.32C208.385 39.9924 208.24 39.8664 208.013 39.8664C207.787 39.8664 207.635 39.9924 207.635 40.32V42.7644Z" fill="#263238"/>
<path d="M206.911 46.935C206.911 46.6426 207.027 46.3622 207.234 46.1554C207.441 45.9487 207.721 45.8325 208.013 45.8325C208.306 45.8325 208.586 45.9487 208.793 46.1554C209 46.3622 209.116 46.6426 209.116 46.935V49.3353C209.116 49.6277 209 49.9081 208.793 50.1149C208.586 50.3217 208.306 50.4378 208.013 50.4378C207.721 50.4378 207.441 50.3217 207.234 50.1149C207.027 49.9081 206.911 49.6277 206.911 49.3353V46.935ZM207.635 49.3794C207.635 49.7133 207.78 49.8393 208.013 49.8393C208.246 49.8393 208.385 49.7133 208.385 49.3794V46.8909C208.385 46.557 208.24 46.431 208.013 46.431C207.787 46.431 207.635 46.557 207.635 46.8909V49.3794Z" fill="#263238"/>
<path d="M207.421 53.0082C207.602 53.0306 207.785 52.9831 207.933 52.8754C208.08 52.7678 208.181 52.608 208.215 52.4286H208.706V57.0402H207.982V53.55H207.421V53.0082Z" fill="#263238"/>
<path d="M207.421 66.2004C207.602 66.2228 207.785 66.1753 207.933 66.0676C208.08 65.96 208.181 65.8002 208.215 65.6208H208.706V70.2387H207.982V66.717H207.421V66.2004Z" fill="#263238"/>
<path d="M207.421 72.8028C207.602 72.8252 207.785 72.7777 207.933 72.6701C208.08 72.5624 208.181 72.4026 208.215 72.2232H208.706V76.86H207.982V73.3383H207.421V72.8028Z" fill="#263238"/>
<path d="M206.911 86.5242C206.911 86.2318 207.027 85.9514 207.234 85.7446C207.441 85.5379 207.721 85.4217 208.013 85.4217C208.306 85.4217 208.586 85.5379 208.793 85.7446C209 85.9514 209.116 86.2318 209.116 86.5242V88.9245C209.116 89.2169 209 89.4973 208.793 89.7041C208.586 89.9108 208.306 90.027 208.013 90.027C207.721 90.027 207.441 89.9108 207.234 89.7041C207.027 89.4973 206.911 89.2169 206.911 88.9245V86.5242ZM207.635 88.9686C207.635 89.3025 207.78 89.4285 208.013 89.4285C208.246 89.4285 208.385 89.3025 208.385 88.9686V86.4801C208.385 86.1462 208.24 86.0265 208.013 86.0265C207.787 86.0265 207.635 86.1462 207.635 86.4801V88.9686Z" fill="#263238"/>
<path d="M207.421 92.61C207.602 92.6324 207.785 92.5849 207.933 92.4772C208.08 92.3696 208.181 92.2098 208.215 92.0304H208.706V96.642H207.982V93.1203H207.421V92.61Z" fill="#263238"/>
<path d="M214.754 20.5443C214.754 20.2519 214.871 19.9715 215.077 19.7647C215.284 19.558 215.564 19.4418 215.857 19.4418C216.149 19.4418 216.43 19.558 216.636 19.7647C216.843 19.9715 216.959 20.2519 216.959 20.5443V22.9446C216.959 23.237 216.843 23.5174 216.636 23.7242C216.43 23.9309 216.149 24.0471 215.857 24.0471C215.564 24.0471 215.284 23.9309 215.077 23.7242C214.871 23.5174 214.754 23.237 214.754 22.9446V20.5443ZM215.46 22.9887C215.46 23.3163 215.605 23.4423 215.832 23.4423C216.058 23.4423 216.21 23.3163 216.21 22.9887V20.4687C216.21 20.1411 216.065 20.0151 215.832 20.0151C215.599 20.0151 215.46 20.1411 215.46 20.4687V22.9887Z" fill="#263238"/>
<path d="M215.265 26.6112C215.447 26.6338 215.63 26.5865 215.779 26.4789C215.927 26.3714 216.029 26.2115 216.065 26.0316H216.55V30.6495H215.825V27.1278H215.265V26.6112Z" fill="#263238"/>
<path d="M214.754 33.7365C214.754 33.4441 214.871 33.1637 215.077 32.9569C215.284 32.7502 215.564 32.634 215.857 32.634C216.149 32.634 216.43 32.7502 216.636 32.9569C216.843 33.1637 216.959 33.4441 216.959 33.7365V36.1368C216.959 36.4292 216.843 36.7096 216.636 36.9164C216.43 37.1231 216.149 37.2393 215.857 37.2393C215.564 37.2393 215.284 37.1231 215.077 36.9164C214.871 36.7096 214.754 36.4292 214.754 36.1368V33.7365ZM215.46 36.1872C215.46 36.5148 215.605 36.6408 215.832 36.6408C216.058 36.6408 216.21 36.5148 216.21 36.1872V33.6672C216.21 33.3396 216.065 33.2136 215.832 33.2136C215.599 33.2136 215.46 33.3396 215.46 33.6672V36.1872Z" fill="#263238"/>
<path d="M215.265 39.8097C215.447 39.8323 215.63 39.785 215.779 39.6774C215.927 39.5699 216.029 39.41 216.065 39.2301H216.55V43.848H215.825V40.32H215.265V39.8097Z" fill="#263238"/>
<path d="M215.265 46.4058C215.447 46.4284 215.63 46.3811 215.779 46.2735C215.927 46.166 216.029 46.0061 216.065 45.8262H216.55V50.4441H215.825V46.9224H215.265V46.4058Z" fill="#263238"/>
<path d="M215.265 53.0082C215.447 53.0307 215.63 52.9835 215.779 52.8759C215.927 52.7684 216.029 52.6085 216.065 52.4286H216.55V57.0402H215.825V53.55H215.265V53.0082Z" fill="#263238"/>
<path d="M214.754 60.1335C214.754 59.8411 214.871 59.5607 215.077 59.3539C215.284 59.1472 215.564 59.031 215.857 59.031C216.149 59.031 216.43 59.1472 216.636 59.3539C216.843 59.5607 216.959 59.8411 216.959 60.1335V62.5338C216.959 62.8262 216.843 63.1066 216.636 63.3134C216.43 63.5202 216.149 63.6363 215.857 63.6363C215.564 63.6363 215.284 63.5202 215.077 63.3134C214.871 63.1066 214.754 62.8262 214.754 62.5338V60.1335ZM215.46 62.5779C215.46 62.9055 215.605 63.0315 215.832 63.0315C216.058 63.0315 216.21 62.9055 216.21 62.5779V60.0579C216.21 59.7303 216.065 59.6043 215.832 59.6043C215.599 59.6043 215.46 59.7303 215.46 60.0579V62.5779Z" fill="#263238"/>
<path d="M214.754 66.7296C214.754 66.4372 214.871 66.1568 215.077 65.95C215.284 65.7433 215.564 65.6271 215.857 65.6271C216.149 65.6271 216.43 65.7433 216.636 65.95C216.843 66.1568 216.959 66.4372 216.959 66.7296V69.1299C216.959 69.4223 216.843 69.7027 216.636 69.9095C216.43 70.1163 216.149 70.2324 215.857 70.2324C215.564 70.2324 215.284 70.1163 215.077 69.9095C214.871 69.7027 214.754 69.4223 214.754 69.1299V66.7296ZM215.46 69.174C215.46 69.5079 215.605 69.6339 215.832 69.6339C216.058 69.6339 216.21 69.5079 216.21 69.174V66.654C216.21 66.3201 216.065 66.2004 215.832 66.2004C215.599 66.2004 215.46 66.3201 215.46 66.654V69.174Z" fill="#263238"/>
<path d="M211.34 26.6112C211.522 26.6338 211.706 26.5865 211.854 26.4789C212.003 26.3714 212.105 26.2115 212.14 26.0316H212.625V30.6495H211.901V27.1278H211.34V26.6112Z" fill="#263238"/>
<path d="M210.836 33.7365C210.824 33.5851 210.844 33.433 210.894 33.2897C210.944 33.1464 211.023 33.015 211.127 32.9037C211.23 32.7923 211.355 32.7035 211.494 32.6428C211.633 32.5821 211.783 32.5507 211.935 32.5507C212.087 32.5507 212.237 32.5821 212.376 32.6428C212.515 32.7035 212.64 32.7923 212.744 32.9037C212.847 33.015 212.926 33.1464 212.976 33.2897C213.026 33.433 213.046 33.5851 213.034 33.7365V36.1368C213.046 36.2882 213.026 36.4403 212.976 36.5836C212.926 36.7269 212.847 36.8583 212.744 36.9696C212.64 37.081 212.515 37.1698 212.376 37.2305C212.237 37.2912 212.087 37.3226 211.935 37.3226C211.783 37.3226 211.633 37.2912 211.494 37.2305C211.355 37.1698 211.23 37.081 211.127 36.9696C211.023 36.8583 210.944 36.7269 210.894 36.5836C210.844 36.4403 210.824 36.2882 210.836 36.1368V33.7365ZM211.56 36.1872C211.56 36.5148 211.705 36.6408 211.932 36.6408C212.159 36.6408 212.31 36.5148 212.31 36.1872V33.6672C212.31 33.3396 212.165 33.2136 211.932 33.2136C211.699 33.2136 211.56 33.3396 211.56 33.6672V36.1872Z" fill="#263238"/>
<path d="M210.836 40.32C210.824 40.1686 210.844 40.0165 210.894 39.8732C210.944 39.7299 211.023 39.5985 211.127 39.4872C211.23 39.3758 211.355 39.287 211.494 39.2263C211.633 39.1656 211.783 39.1342 211.935 39.1342C212.087 39.1342 212.237 39.1656 212.376 39.2263C212.515 39.287 212.64 39.3758 212.744 39.4872C212.847 39.5985 212.926 39.7299 212.976 39.8732C213.026 40.0165 213.046 40.1686 213.034 40.32V42.7203C213.046 42.8717 213.026 43.0238 212.976 43.1671C212.926 43.3104 212.847 43.4418 212.744 43.5531C212.64 43.6645 212.515 43.7533 212.376 43.814C212.237 43.8747 212.087 43.9061 211.935 43.9061C211.783 43.9061 211.633 43.8747 211.494 43.814C211.355 43.7533 211.23 43.6645 211.127 43.5531C211.023 43.4418 210.944 43.3104 210.894 43.1671C210.844 43.0238 210.824 42.8717 210.836 42.7203V40.32ZM211.56 42.7644C211.56 43.092 211.705 43.218 211.932 43.218C212.159 43.218 212.31 43.092 212.31 42.7644V40.32C212.31 39.9924 212.165 39.8664 211.932 39.8664C211.699 39.8664 211.56 39.9924 211.56 40.32V42.7644Z" fill="#263238"/>
<path d="M211.34 46.4058C211.522 46.4284 211.706 46.3811 211.854 46.2735C212.003 46.166 212.105 46.0061 212.14 45.8262H212.625V50.4441H211.901V46.9224H211.34V46.4058Z" fill="#263238"/>
<path d="M211.34 59.6043C211.522 59.6269 211.706 59.5796 211.854 59.472C212.003 59.3645 212.105 59.2046 212.14 59.0247H212.625V63.63H211.901V60.1209H211.34V59.6043Z" fill="#263238"/>
<path d="M211.34 66.2004C211.522 66.2229 211.706 66.1757 211.854 66.0681C212.003 65.9606 212.105 65.8007 212.14 65.6208H212.625V70.2387H211.901V66.717H211.34V66.2004Z" fill="#263238"/>
<path d="M211.34 72.8028C211.522 72.8254 211.706 72.7781 211.854 72.6705C212.003 72.563 212.105 72.4031 212.14 72.2232H212.625V76.86H211.901V73.3383H211.34V72.8028Z" fill="#263238"/>
<path d="M34.02 93.5991C34.02 93.3067 34.1362 93.0263 34.3429 92.8195C34.5497 92.6128 34.8301 92.4966 35.1225 92.4966C35.4149 92.4966 35.6953 92.6128 35.9021 92.8195C36.1089 93.0263 36.225 93.3067 36.225 93.5991V96.0057C36.225 96.2981 36.1089 96.5785 35.9021 96.7853C35.6953 96.9921 35.4149 97.1082 35.1225 97.1082C34.8301 97.1082 34.5497 96.9921 34.3429 96.7853C34.1362 96.5785 34.02 96.2981 34.02 96.0057V93.5991ZM34.7445 96.0498C34.7445 96.3774 34.8894 96.5034 35.1225 96.5034C35.3556 96.5034 35.4942 96.3774 35.4942 96.0498V93.5298C35.4942 93.2022 35.3493 93.0762 35.1225 93.0762C34.8957 93.0762 34.7445 93.2022 34.7445 93.5298V96.0498Z" fill="#263238"/>
<path d="M34.02 100.201C34.02 99.9091 34.1362 99.6287 34.3429 99.4219C34.5497 99.2152 34.8301 99.099 35.1225 99.099C35.4149 99.099 35.6953 99.2152 35.9021 99.4219C36.1089 99.6287 36.225 99.9091 36.225 100.201V102.602C36.225 102.894 36.1089 103.175 35.9021 103.381C35.6953 103.588 35.4149 103.704 35.1225 103.704C34.8301 103.704 34.5497 103.588 34.3429 103.381C34.1362 103.175 34.02 102.894 34.02 102.602V100.201ZM34.7445 102.646C34.7445 102.98 34.8894 103.099 35.1225 103.099C35.3556 103.099 35.4942 102.98 35.4942 102.646V100.126C35.4942 99.7983 35.3493 99.6723 35.1225 99.6723C34.8957 99.6723 34.7445 99.7983 34.7445 100.126V102.646Z" fill="#263238"/>
<path d="M34.524 106.268C34.7052 106.291 34.8882 106.243 35.0356 106.136C35.1831 106.028 35.284 105.868 35.3178 105.689H35.8092V110.307H35.0847V106.785H34.524V106.268Z" fill="#263238"/>
<path d="M34.02 113.4C34.02 113.108 34.1362 112.827 34.3429 112.62C34.5497 112.414 34.8301 112.297 35.1225 112.297C35.4149 112.297 35.6953 112.414 35.9021 112.62C36.1089 112.827 36.225 113.108 36.225 113.4V115.807C36.225 116.099 36.1089 116.379 35.9021 116.586C35.6953 116.793 35.4149 116.909 35.1225 116.909C34.8301 116.909 34.5497 116.793 34.3429 116.586C34.1362 116.379 34.02 116.099 34.02 115.807V113.4ZM34.7445 115.851C34.7445 116.178 34.8894 116.304 35.1225 116.304C35.3556 116.304 35.4942 116.178 35.4942 115.851V113.331C35.4942 113.003 35.3493 112.877 35.1225 112.877C34.8957 112.877 34.7445 113.003 34.7445 113.331V115.851Z" fill="#263238"/>
<path d="M34.524 119.467C34.7052 119.489 34.8882 119.442 35.0356 119.334C35.1831 119.226 35.284 119.067 35.3178 118.887H35.8092V123.48H35.0847V119.958H34.524V119.467Z" fill="#263238"/>
<path d="M34.02 126.592C34.02 126.3 34.1362 126.019 34.3429 125.813C34.5497 125.606 34.8301 125.49 35.1225 125.49C35.4149 125.49 35.6953 125.606 35.9021 125.813C36.1089 126.019 36.225 126.3 36.225 126.592V128.992C36.225 129.285 36.1089 129.565 35.9021 129.772C35.6953 129.979 35.4149 130.095 35.1225 130.095C34.8301 130.095 34.5497 129.979 34.3429 129.772C34.1362 129.565 34.02 129.285 34.02 128.992V126.592ZM34.7445 129.043C34.7445 129.37 34.8894 129.496 35.1225 129.496C35.3556 129.496 35.4942 129.37 35.4942 129.043V126.523C35.4942 126.189 35.3493 126.069 35.1225 126.069C34.8957 126.069 34.7445 126.189 34.7445 126.523V129.043Z" fill="#263238"/>
<path d="M34.524 132.665C34.7052 132.688 34.8882 132.64 35.0356 132.533C35.1831 132.425 35.284 132.265 35.3178 132.086H35.8092V136.71H35.0847V133.188H34.524V132.665Z" fill="#263238"/>
<path d="M34.02 139.791C34.02 139.498 34.1362 139.218 34.3429 139.011C34.5497 138.804 34.8301 138.688 35.1225 138.688C35.4149 138.688 35.6953 138.804 35.9021 139.011C36.1089 139.218 36.225 139.498 36.225 139.791V142.191C36.225 142.483 36.1089 142.764 35.9021 142.971C35.6953 143.177 35.4149 143.294 35.1225 143.294C34.8301 143.294 34.5497 143.177 34.3429 142.971C34.1362 142.764 34.02 142.483 34.02 142.191V139.791ZM34.7445 142.235C34.7445 142.569 34.8894 142.689 35.1225 142.689C35.3556 142.689 35.4942 142.569 35.4942 142.235V139.715C35.4942 139.388 35.3493 139.262 35.1225 139.262C34.8957 139.262 34.7445 139.388 34.7445 139.715V142.235Z" fill="#263238"/>
<path d="M34.02 146.387C34.02 146.094 34.1362 145.814 34.3429 145.607C34.5497 145.4 34.8301 145.284 35.1225 145.284C35.4149 145.284 35.6953 145.4 35.9021 145.607C36.1089 145.814 36.225 146.094 36.225 146.387V148.787C36.225 149.08 36.1089 149.36 35.9021 149.567C35.6953 149.773 35.4149 149.89 35.1225 149.89C34.8301 149.89 34.5497 149.773 34.3429 149.567C34.1362 149.36 34.02 149.08 34.02 148.787V146.387ZM34.7445 148.838C34.7445 149.165 34.8894 149.291 35.1225 149.291C35.3556 149.291 35.4942 149.165 35.4942 148.838V146.318C35.4942 145.99 35.3493 145.864 35.1225 145.864C34.8957 145.864 34.7445 145.99 34.7445 146.318V148.838Z" fill="#263238"/>
<path d="M34.02 152.989C34.02 152.697 34.1362 152.416 34.3429 152.21C34.5497 152.003 34.8301 151.887 35.1225 151.887C35.4149 151.887 35.6953 152.003 35.9021 152.21C36.1089 152.416 36.225 152.697 36.225 152.989V155.39C36.225 155.682 36.1089 155.962 35.9021 156.169C35.6953 156.376 35.4149 156.492 35.1225 156.492C34.8301 156.492 34.5497 156.376 34.3429 156.169C34.1362 155.962 34.02 155.682 34.02 155.39V152.989ZM34.7445 155.434C34.7445 155.761 34.8894 155.887 35.1225 155.887C35.3556 155.887 35.4942 155.761 35.4942 155.434V152.914C35.4942 152.586 35.3493 152.46 35.1225 152.46C34.8957 152.46 34.7445 152.586 34.7445 152.914V155.434Z" fill="#263238"/>
<path d="M34.524 165.652C34.7055 165.676 34.8892 165.629 35.037 165.521C35.1848 165.413 35.2854 165.253 35.3178 165.073H35.8092V169.691H35.0847V166.169H34.524V165.652Z" fill="#263238"/>
<path d="M38.4301 119.467C38.612 119.489 38.7957 119.442 38.9442 119.335C39.0927 119.227 39.1949 119.067 39.2302 118.887H39.7153V123.48H39.0034V119.958H38.4301V119.467Z" fill="#263238"/>
<path d="M38.4301 126.063C38.612 126.086 38.7957 126.038 38.9442 125.931C39.0927 125.823 39.1949 125.663 39.2302 125.483H39.7153V130.101H39.0034V126.58H38.4301V126.063Z" fill="#263238"/>
<path d="M37.9386 133.188C37.9271 133.037 37.947 132.885 37.9971 132.742C38.0471 132.598 38.1262 132.467 38.2294 132.355C38.3326 132.244 38.4577 132.155 38.5968 132.095C38.736 132.034 38.8861 132.003 39.0379 132.003C39.1897 132.003 39.3399 132.034 39.479 132.095C39.6181 132.155 39.7432 132.244 39.8464 132.355C39.9496 132.467 40.0287 132.598 40.0788 132.742C40.1288 132.885 40.1487 133.037 40.1373 133.188V135.595C40.1487 135.746 40.1288 135.898 40.0788 136.042C40.0287 136.185 39.9496 136.316 39.8464 136.428C39.7432 136.539 39.6181 136.628 39.479 136.689C39.3399 136.749 39.1897 136.781 39.0379 136.781C38.8861 136.781 38.736 136.749 38.5968 136.689C38.4577 136.628 38.3326 136.539 38.2294 136.428C38.1262 136.316 38.0471 136.185 37.9971 136.042C37.947 135.898 37.9271 135.746 37.9386 135.595V133.188ZM38.6631 135.639C38.6631 135.967 38.808 136.093 39.0348 136.093C39.2616 136.093 39.4128 135.967 39.4128 135.639V133.119C39.4128 132.791 39.2679 132.665 39.0348 132.665C38.8017 132.665 38.6631 132.791 38.6631 133.119V135.639Z" fill="#263238"/>
<path d="M37.9386 139.791C37.9271 139.639 37.947 139.487 37.9971 139.344C38.0471 139.201 38.1262 139.069 38.2294 138.958C38.3326 138.847 38.4577 138.758 38.5968 138.697C38.736 138.636 38.8861 138.605 39.0379 138.605C39.1897 138.605 39.3399 138.636 39.479 138.697C39.6181 138.758 39.7432 138.847 39.8464 138.958C39.9496 139.069 40.0287 139.201 40.0788 139.344C40.1288 139.487 40.1487 139.639 40.1373 139.791V142.191C40.1487 142.342 40.1288 142.494 40.0788 142.638C40.0287 142.781 39.9496 142.913 39.8464 143.024C39.7432 143.135 39.6181 143.224 39.479 143.285C39.3399 143.345 39.1897 143.377 39.0379 143.377C38.8861 143.377 38.736 143.345 38.5968 143.285C38.4577 143.224 38.3326 143.135 38.2294 143.024C38.1262 142.913 38.0471 142.781 37.9971 142.638C37.947 142.494 37.9271 142.342 37.9386 142.191V139.791ZM38.6631 142.235C38.6631 142.569 38.808 142.689 39.0348 142.689C39.2616 142.689 39.4128 142.569 39.4128 142.235V139.715C39.4128 139.388 39.2679 139.261 39.0348 139.261C38.8017 139.261 38.6631 139.388 38.6631 139.715V142.235Z" fill="#263238"/>
<path d="M38.4301 145.858C38.6123 145.882 38.7968 145.835 38.9456 145.727C39.0944 145.619 39.1963 145.459 39.2302 145.278H39.7153V149.896H39.0034V146.374H38.4301V145.858Z" fill="#263238"/>
<path d="M38.4301 159.056C38.612 159.079 38.7957 159.031 38.9442 158.924C39.0927 158.816 39.1949 158.656 39.2302 158.477H39.7153V163.094H39.0034V159.573H38.4301V159.056Z" fill="#263238"/>
<path d="M30.0887 113.4C30.0887 113.108 30.2049 112.827 30.4117 112.62C30.6184 112.414 30.8988 112.297 31.1912 112.297C31.4836 112.297 31.7641 112.414 31.9708 112.62C32.1776 112.827 32.2937 113.108 32.2937 113.4V115.807C32.2937 116.099 32.1776 116.379 31.9708 116.586C31.7641 116.793 31.4836 116.909 31.1912 116.909C30.8988 116.909 30.6184 116.793 30.4117 116.586C30.2049 116.379 30.0887 116.099 30.0887 115.807V113.4ZM30.8195 115.851C30.8195 116.178 30.9644 116.304 31.1912 116.304C31.418 116.304 31.5692 116.178 31.5692 115.851V113.331C31.5692 113.003 31.4243 112.877 31.1912 112.877C30.9581 112.877 30.8195 113.003 30.8195 113.331V115.851Z" fill="#263238"/>
<path d="M30.5991 119.467C30.7811 119.489 30.9648 119.442 31.1133 119.335C31.2618 119.227 31.3639 119.067 31.3992 118.887H31.8843V123.48H31.1598V119.958H30.5991V119.467Z" fill="#263238"/>
<path d="M30.5991 126.063C30.7811 126.086 30.9648 126.038 31.1133 125.931C31.2618 125.823 31.3639 125.663 31.3992 125.483H31.8843V130.101H31.1598V126.58H30.5991V126.063Z" fill="#263238"/>
<path d="M30.0887 133.188C30.0887 132.896 30.2049 132.615 30.4117 132.409C30.6184 132.202 30.8988 132.086 31.1912 132.086C31.4836 132.086 31.7641 132.202 31.9708 132.409C32.1776 132.615 32.2937 132.896 32.2937 133.188V135.595C32.2937 135.887 32.1776 136.168 31.9708 136.374C31.7641 136.581 31.4836 136.697 31.1912 136.697C30.8988 136.697 30.6184 136.581 30.4117 136.374C30.2049 136.168 30.0887 135.887 30.0887 135.595V133.188ZM30.8195 135.639C30.8195 135.967 30.9644 136.093 31.1912 136.093C31.418 136.093 31.5692 135.967 31.5692 135.639V133.119C31.5692 132.791 31.4243 132.665 31.1912 132.665C30.9581 132.665 30.8195 132.791 30.8195 133.119V135.639Z" fill="#263238"/>
<path d="M30.5991 139.262C30.7811 139.284 30.9648 139.237 31.1133 139.129C31.2618 139.022 31.3639 138.862 31.3992 138.682H31.8843V143.3H31.1598V139.778H30.5991V139.262Z" fill="#263238"/>
<path d="M30.0887 146.387C30.0887 146.094 30.2049 145.814 30.4117 145.607C30.6184 145.4 30.8988 145.284 31.1912 145.284C31.4836 145.284 31.7641 145.4 31.9708 145.607C32.1776 145.814 32.2937 146.094 32.2937 146.387V148.787C32.2937 149.08 32.1776 149.36 31.9708 149.567C31.7641 149.773 31.4836 149.89 31.1912 149.89C30.8988 149.89 30.6184 149.773 30.4117 149.567C30.2049 149.36 30.0887 149.08 30.0887 148.787V146.387ZM30.8195 148.838C30.8195 149.165 30.9644 149.291 31.1912 149.291C31.418 149.291 31.5692 149.165 31.5692 148.838V146.318C31.5692 145.99 31.4243 145.864 31.1912 145.864C30.9581 145.864 30.8195 145.99 30.8195 146.318V148.838Z" fill="#263238"/>
<path d="M26.1702 100.202C26.1587 100.05 26.1787 99.898 26.2287 99.7547C26.2788 99.6114 26.3579 99.48 26.4611 99.3687C26.5643 99.2573 26.6893 99.1685 26.8285 99.1078C26.9676 99.0471 27.1178 99.0157 27.2696 99.0157C27.4214 99.0157 27.5715 99.0471 27.7106 99.1078C27.8498 99.1685 27.9748 99.2573 28.078 99.3687C28.1813 99.48 28.2604 99.6114 28.3104 99.7547C28.3605 99.898 28.3804 100.05 28.3689 100.202V102.602C28.3804 102.753 28.3605 102.905 28.3104 103.049C28.2604 103.192 28.1813 103.323 28.078 103.435C27.9748 103.546 27.8498 103.635 27.7106 103.696C27.5715 103.756 27.4214 103.788 27.2696 103.788C27.1178 103.788 26.9676 103.756 26.8285 103.696C26.6893 103.635 26.5643 103.546 26.4611 103.435C26.3579 103.323 26.2788 103.192 26.2287 103.049C26.1787 102.905 26.1587 102.753 26.1702 102.602V100.202ZM26.8947 102.646C26.8947 102.98 27.0396 103.099 27.2664 103.099C27.4932 103.099 27.6444 102.98 27.6444 102.646V100.126C27.6444 99.792 27.4995 99.666 27.2664 99.666C27.0333 99.666 26.8947 99.792 26.8947 100.126V102.646Z" fill="#263238"/>
<path d="M26.6742 112.871C26.8561 112.893 27.0399 112.846 27.1884 112.739C27.3368 112.631 27.439 112.471 27.4743 112.291H27.9594V116.903H27.2349V113.4H26.6742V112.871Z" fill="#263238"/>
<path d="M26.1702 119.996C26.1587 119.845 26.1787 119.693 26.2287 119.549C26.2788 119.406 26.3579 119.275 26.4611 119.163C26.5643 119.052 26.6893 118.963 26.8285 118.902C26.9676 118.842 27.1178 118.81 27.2696 118.81C27.4214 118.81 27.5715 118.842 27.7106 118.902C27.8498 118.963 27.9748 119.052 28.078 119.163C28.1813 119.275 28.2604 119.406 28.3104 119.549C28.3605 119.693 28.3804 119.845 28.3689 119.996V122.396C28.3804 122.548 28.3605 122.7 28.3104 122.843C28.2604 122.987 28.1813 123.118 28.078 123.229C27.9748 123.341 27.8498 123.429 27.7106 123.49C27.5715 123.551 27.4214 123.582 27.2696 123.582C27.1178 123.582 26.9676 123.551 26.8285 123.49C26.6893 123.429 26.5643 123.341 26.4611 123.229C26.3579 123.118 26.2788 122.987 26.2287 122.843C26.1787 122.7 26.1587 122.548 26.1702 122.396V119.996ZM26.8947 122.441C26.8947 122.774 27.0396 122.894 27.2664 122.894C27.4932 122.894 27.6444 122.774 27.6444 122.441V119.952C27.6444 119.618 27.4995 119.492 27.2664 119.492C27.0333 119.492 26.8947 119.618 26.8947 119.952V122.441Z" fill="#263238"/>
<path d="M26.1702 133.195C26.1587 133.043 26.1787 132.891 26.2287 132.748C26.2788 132.605 26.3579 132.473 26.4611 132.362C26.5643 132.25 26.6893 132.162 26.8285 132.101C26.9676 132.04 27.1178 132.009 27.2696 132.009C27.4214 132.009 27.5715 132.04 27.7106 132.101C27.8498 132.162 27.9748 132.25 28.078 132.362C28.1813 132.473 28.2604 132.605 28.3104 132.748C28.3605 132.891 28.3804 133.043 28.3689 133.195V135.595C28.3804 135.746 28.3605 135.898 28.3104 136.042C28.2604 136.185 28.1813 136.316 28.078 136.428C27.9748 136.539 27.8498 136.628 27.7106 136.689C27.5715 136.749 27.4214 136.781 27.2696 136.781C27.1178 136.781 26.9676 136.749 26.8285 136.689C26.6893 136.628 26.5643 136.539 26.4611 136.428C26.3579 136.316 26.2788 136.185 26.2287 136.042C26.1787 135.898 26.1587 135.746 26.1702 135.595V133.195ZM26.8947 135.639C26.8947 135.967 27.0396 136.093 27.2664 136.093C27.4932 136.093 27.6444 135.967 27.6444 135.639V133.119C27.6444 132.791 27.4995 132.665 27.2664 132.665C27.0333 132.665 26.8947 132.791 26.8947 133.119V135.639Z" fill="#263238"/>
<path d="M26.1702 139.791C26.1587 139.639 26.1787 139.487 26.2287 139.344C26.2788 139.201 26.3579 139.069 26.4611 138.958C26.5643 138.847 26.6893 138.758 26.8285 138.697C26.9676 138.636 27.1178 138.605 27.2696 138.605C27.4214 138.605 27.5715 138.636 27.7106 138.697C27.8498 138.758 27.9748 138.847 28.078 138.958C28.1813 139.069 28.2604 139.201 28.3104 139.344C28.3605 139.487 28.3804 139.639 28.3689 139.791V142.191C28.3804 142.342 28.3605 142.494 28.3104 142.638C28.2604 142.781 28.1813 142.913 28.078 143.024C27.9748 143.135 27.8498 143.224 27.7106 143.285C27.5715 143.345 27.4214 143.377 27.2696 143.377C27.1178 143.377 26.9676 143.345 26.8285 143.285C26.6893 143.224 26.5643 143.135 26.4611 143.024C26.3579 142.913 26.2788 142.781 26.2287 142.638C26.1787 142.494 26.1587 142.342 26.1702 142.191V139.791ZM26.8947 142.235C26.8947 142.569 27.0396 142.695 27.2664 142.695C27.4932 142.695 27.6444 142.569 27.6444 142.235V139.715C27.6444 139.381 27.4995 139.255 27.2664 139.255C27.0333 139.255 26.8947 139.381 26.8947 139.715V142.235Z" fill="#263238"/>
<path d="M26.1702 146.387C26.1587 146.235 26.1787 146.083 26.2287 145.94C26.2788 145.797 26.3579 145.665 26.4611 145.554C26.5643 145.443 26.6893 145.354 26.8285 145.293C26.9676 145.232 27.1178 145.201 27.2696 145.201C27.4214 145.201 27.5715 145.232 27.7106 145.293C27.8498 145.354 27.9748 145.443 28.078 145.554C28.1813 145.665 28.2604 145.797 28.3104 145.94C28.3605 146.083 28.3804 146.235 28.3689 146.387V148.787C28.3804 148.938 28.3605 149.091 28.3104 149.234C28.2604 149.377 28.1813 149.509 28.078 149.62C27.9748 149.731 27.8498 149.82 27.7106 149.881C27.5715 149.942 27.4214 149.973 27.2696 149.973C27.1178 149.973 26.9676 149.942 26.8285 149.881C26.6893 149.82 26.5643 149.731 26.4611 149.62C26.3579 149.509 26.2788 149.377 26.2287 149.234C26.1787 149.091 26.1587 148.938 26.1702 148.787V146.387ZM26.8947 148.837C26.8947 149.165 27.0396 149.291 27.2664 149.291C27.4932 149.291 27.6444 149.165 27.6444 148.837V146.317C27.6444 145.99 27.4995 145.864 27.2664 145.864C27.0333 145.864 26.8947 145.99 26.8947 146.317V148.837Z" fill="#263238"/>
<path d="M26.6742 165.69C26.8571 165.712 27.0416 165.664 27.1902 165.555C27.3388 165.447 27.4404 165.285 27.4743 165.104H27.9594V169.722H27.2349V166.2H26.6742V165.69Z" fill="#263238"/>
<path d="M247.672 161.664C227.083 153.329 225.59 124.664 225.59 124.664H230V121.237C240.452 121.237 247.672 114.754 247.672 114.754C247.672 114.754 254.892 121.237 265.343 121.237V124.664H269.753C269.753 124.664 268.254 153.329 247.672 161.664Z" stroke="#263238" stroke-width="1.10721" stroke-linecap="round" stroke-linejoin="round"/>
<path d="M247.672 157.878C234.184 151.578 230.277 134.845 229.2 127.638H233.232V124.034C238.416 123.394 243.369 121.514 247.672 118.553C251.977 121.514 256.932 123.394 262.118 124.034V127.638H266.137C265.047 134.82 261.116 151.578 247.672 157.878Z" stroke="#263238" stroke-width="1.10721" stroke-linecap="round" stroke-linejoin="round"/>
<path d="M254.942 134.171H240.395C239.926 134.171 239.545 134.552 239.545 135.022V143.76C239.545 144.229 239.926 144.61 240.395 144.61H254.942C255.412 144.61 255.792 144.229 255.792 143.76V135.022C255.792 134.552 255.412 134.171 254.942 134.171Z" fill="#263238"/>
<path d="M247.962 125.37C247.171 125.332 246.382 125.454 245.64 125.73C244.899 126.006 244.221 126.429 243.648 126.974C243.075 127.52 242.618 128.176 242.306 128.903C241.994 129.63 241.833 130.413 241.832 131.204V131.834C241.832 131.888 241.842 131.941 241.863 131.99C241.884 132.04 241.914 132.085 241.952 132.123C241.99 132.161 242.035 132.192 242.085 132.212C242.134 132.233 242.188 132.243 242.241 132.243H243.716C243.769 132.243 243.823 132.233 243.872 132.212C243.922 132.192 243.967 132.161 244.005 132.123C244.043 132.085 244.073 132.04 244.094 131.99C244.114 131.941 244.125 131.888 244.125 131.834V131.349C244.113 130.436 244.447 129.552 245.059 128.874C245.671 128.197 246.517 127.776 247.426 127.695C247.91 127.663 248.396 127.731 248.852 127.894C249.309 128.057 249.727 128.312 250.082 128.643C250.436 128.974 250.719 129.375 250.912 129.819C251.105 130.264 251.206 130.744 251.206 131.229V131.859C251.206 131.968 251.249 132.072 251.326 132.149C251.403 132.225 251.507 132.268 251.616 132.268H253.09C253.199 132.268 253.303 132.225 253.379 132.149C253.456 132.072 253.499 131.968 253.499 131.859V131.418C253.527 129.892 252.968 128.414 251.938 127.289C250.907 126.163 249.484 125.476 247.962 125.37Z" fill="#263238"/>
<path d="M249.196 138.222C249.197 137.95 249.125 137.682 248.987 137.447C248.849 137.212 248.651 137.019 248.413 136.886C248.175 136.754 247.906 136.688 247.634 136.694C247.362 136.701 247.096 136.781 246.865 136.925C246.634 137.069 246.446 137.272 246.32 137.514C246.194 137.755 246.135 138.026 246.149 138.298C246.163 138.57 246.25 138.833 246.401 139.06C246.551 139.287 246.759 139.47 247.004 139.589L246.45 142.04H248.888L248.333 139.589C248.59 139.464 248.808 139.27 248.96 139.029C249.113 138.787 249.194 138.508 249.196 138.222Z" fill="white" stroke="#263238" stroke-width="1.10721" stroke-linecap="round" stroke-linejoin="round"/>
<path d="M182.624 30.3156H132.88C131.724 30.3156 130.788 31.252 130.788 32.4072V60.417C130.788 61.5722 131.724 62.5086 132.88 62.5086H182.624C183.78 62.5086 184.716 61.5722 184.716 60.417V32.4072C184.716 31.252 183.78 30.3156 182.624 30.3156Z" stroke="#263238" stroke-width="1.10721" stroke-linecap="round" stroke-linejoin="round"/>
<path d="M135.809 58.0104H151.414C151.814 58.0104 152.139 57.686 152.139 57.2859V35.5446C152.139 35.1445 151.814 34.8201 151.414 34.8201H135.809C135.409 34.8201 135.085 35.1445 135.085 35.5446V57.2859C135.085 57.686 135.409 58.0104 135.809 58.0104Z" stroke="#263238" stroke-width="1.10721" stroke-linecap="round" stroke-linejoin="round"/>
<path d="M143.64 58.0041H135.853C135.649 58.0041 135.454 57.9231 135.31 57.779C135.166 57.6348 135.085 57.4393 135.085 57.2355V51.8805C135.085 51.8805 139.438 51.6915 140.169 50.7654C140.899 49.8393 140.093 48.3903 140.093 48.3903C139.828 48.0627 139.765 45.738 139.765 45.738L139.501 45.6687C139.243 45.6057 138.871 43.6779 138.871 42.9534C138.87 42.7447 138.929 42.5402 139.041 42.3639C139.152 42.1875 139.312 42.0467 139.501 41.958C139.501 41.958 138.871 37.2582 143.615 37.2582C148.359 37.2582 147.722 41.958 147.722 41.958C147.911 42.0467 148.071 42.1875 148.182 42.3639C148.294 42.5402 148.353 42.7447 148.352 42.9534C148.352 43.6779 148.012 45.6057 147.722 45.6687L147.458 45.738C147.458 45.738 147.395 48.0627 147.13 48.3903C147.13 48.3903 146.317 49.8393 147.055 50.7654C147.792 51.6915 152.139 51.8805 152.139 51.8805V57.2355C152.14 57.3367 152.12 57.437 152.082 57.5306C152.044 57.6242 151.987 57.7093 151.915 57.7808C151.844 57.8524 151.759 57.909 151.665 57.9473C151.572 57.9856 151.471 58.0049 151.37 58.0041H143.64Z" fill="#263238"/>
<path d="M179.311 58.1175H168.714C168.503 58.1175 168.301 58.0352 168.15 57.888C168 57.7409 167.913 57.5406 167.908 57.33C167.908 57.1161 167.993 56.911 168.144 56.7598C168.295 56.6085 168.5 56.5236 168.714 56.5236H179.311C179.524 56.5236 179.73 56.6085 179.881 56.7598C180.032 56.911 180.117 57.1161 180.117 57.33C180.112 57.5406 180.025 57.7409 179.874 57.888C179.724 58.0352 179.521 58.1175 179.311 58.1175Z" fill="#263238"/>
<path d="M179.311 36.3195H157.342C157.129 36.3195 156.923 36.2345 156.772 36.0833C156.621 35.9321 156.536 35.727 156.536 35.5131C156.536 35.2992 156.621 35.0941 156.772 34.9429C156.923 34.7917 157.129 34.7067 157.342 34.7067H179.311C179.524 34.7067 179.729 34.7917 179.881 34.9429C180.032 35.0941 180.117 35.2992 180.117 35.5131C180.117 35.727 180.032 35.9321 179.881 36.0833C179.729 36.2345 179.524 36.3195 179.311 36.3195Z" fill="#263238"/>
<path d="M169.943 41.769H157.343C157.236 41.769 157.13 41.7477 157.031 41.7064C156.932 41.6651 156.843 41.6046 156.768 41.5284C156.693 41.4522 156.634 41.3618 156.594 41.2625C156.554 41.1632 156.534 41.057 156.536 40.95C156.536 40.7361 156.621 40.531 156.772 40.3798C156.924 40.2286 157.129 40.1436 157.343 40.1436H169.943C170.153 40.1485 170.353 40.2357 170.501 40.3864C170.648 40.5371 170.73 40.7394 170.73 40.95C170.733 41.1628 170.653 41.3683 170.505 41.5217C170.357 41.6752 170.155 41.764 169.943 41.769Z" fill="#263238"/>
<path d="M165.929 47.25H157.342C157.129 47.25 156.923 47.165 156.772 47.0138C156.621 46.8626 156.536 46.6575 156.536 46.4436C156.536 46.2297 156.621 46.0246 156.772 45.8734C156.923 45.7222 157.129 45.6372 157.342 45.6372H165.929C166.143 45.6372 166.348 45.7222 166.5 45.8734C166.651 46.0246 166.736 46.2297 166.736 46.4436C166.736 46.6575 166.651 46.8626 166.5 47.0138C166.348 47.165 166.143 47.25 165.929 47.25Z" fill="#263238"/>
<path d="M169.942 52.668H157.342C157.129 52.668 156.923 52.583 156.772 52.4318C156.621 52.2806 156.536 52.0755 156.536 51.8616C156.533 51.7536 156.551 51.646 156.59 51.5453C156.629 51.4445 156.688 51.3526 156.763 51.275C156.838 51.1975 156.928 51.1358 157.028 51.0937C157.127 51.0516 157.234 51.0299 157.342 51.03H169.942C170.049 51.0324 170.154 51.0559 170.251 51.0991C170.348 51.1423 170.436 51.2044 170.509 51.2817C170.583 51.359 170.64 51.4501 170.678 51.5496C170.716 51.6491 170.733 51.7552 170.73 51.8616C170.73 52.0722 170.648 52.2745 170.5 52.4252C170.353 52.5759 170.153 52.6631 169.942 52.668Z" fill="#263238"/>
<path d="M80.1108 116.033V147.029L71.7696 155.371H49.6188V116.033H80.1108Z" stroke="#263238" stroke-width="1.10721" stroke-linecap="round" stroke-linejoin="round"/>
<path d="M80.1107 147.029L71.7695 155.371V147.029H80.1107Z" fill="#263238" stroke="#263238" stroke-width="1.10721" stroke-linecap="round" stroke-linejoin="round"/>
<path d="M57.0465 121.048H75.4488" stroke="#263238" stroke-width="1.10721" stroke-linecap="round" stroke-linejoin="round"/>
<path d="M54.2744 124.513H75.4487" stroke="#263238" stroke-width="1.10721" stroke-linecap="round" stroke-linejoin="round"/>
<path d="M54.2744 127.978H75.4487" stroke="#263238" stroke-width="1.10721" stroke-linecap="round" stroke-linejoin="round"/>
<path d="M54.2744 131.443H75.4487" stroke="#263238" stroke-width="1.10721" stroke-linecap="round" stroke-linejoin="round"/>
<path d="M54.2744 134.908H75.4487" stroke="#263238" stroke-width="1.10721" stroke-linecap="round" stroke-linejoin="round"/>
<path d="M54.2744 138.373H75.4487" stroke="#263238" stroke-width="1.10721" stroke-linecap="round" stroke-linejoin="round"/>
<path d="M54.2744 141.832H75.4487" stroke="#263238" stroke-width="1.10721" stroke-linecap="round" stroke-linejoin="round"/>
<path d="M54.2744 145.297H72.683" stroke="#263238" stroke-width="1.10721" stroke-linecap="round" stroke-linejoin="round"/>
<path d="M81.5597 121.048H85.1192V152.044L76.7843 160.385H54.6335V156.719" stroke="#263238" stroke-width="1.10721" stroke-linecap="round" stroke-linejoin="round"/>
<path d="M85.1193 152.044L76.7844 160.385V152.044H85.1193Z" fill="#263238" stroke="#263238" stroke-width="1.10721" stroke-linecap="round" stroke-linejoin="round"/>
<path d="M194.657 94.4811H120.847C119.371 94.4811 118.175 95.677 118.175 97.1523V179.267C118.175 180.742 119.371 181.938 120.847 181.938H194.657C196.133 181.938 197.329 180.742 197.329 179.267V97.1523C197.329 95.677 196.133 94.4811 194.657 94.4811Z" fill="#5C8194" stroke="#263238" stroke-width="1.10721" stroke-linecap="round" stroke-linejoin="round"/>
<g opacity="0.5">
<path d="M195.735 123.638H119.769" stroke="white" stroke-width="1.10721" stroke-linecap="round" stroke-linejoin="round"/>
<path d="M195.735 133.352H119.769" stroke="white" stroke-width="1.10721" stroke-linecap="round" stroke-linejoin="round"/>
<path d="M195.735 143.067H119.769" stroke="white" stroke-width="1.10721" stroke-linecap="round" stroke-linejoin="round"/>
<path d="M195.735 152.781H119.769" stroke="white" stroke-width="1.10721" stroke-linecap="round" stroke-linejoin="round"/>
<path d="M195.735 162.496H119.769" stroke="white" stroke-width="1.10721" stroke-linecap="round" stroke-linejoin="round"/>
<path d="M195.735 172.217H119.769" stroke="white" stroke-width="1.10721" stroke-linecap="round" stroke-linejoin="round"/>
<path d="M195.735 113.917H119.769" stroke="white" stroke-width="1.10721" stroke-linecap="round" stroke-linejoin="round"/>
<path d="M195.735 104.202H119.769" stroke="white" stroke-width="1.10721" stroke-linecap="round" stroke-linejoin="round"/>
<path d="M177.584 180.375V96.0372" stroke="white" stroke-width="1.10721" stroke-linecap="round" stroke-linejoin="round"/>
<path d="M167.668 180.375V96.0372" stroke="white" stroke-width="1.10721" stroke-linecap="round" stroke-linejoin="round"/>
<path d="M157.752 180.375V96.0372" stroke="white" stroke-width="1.10721" stroke-linecap="round" stroke-linejoin="round"/>
<path d="M147.836 180.375V96.0372" stroke="white" stroke-width="1.10721" stroke-linecap="round" stroke-linejoin="round"/>
<path d="M137.92 180.375V96.0372" stroke="white" stroke-width="1.10721" stroke-linecap="round" stroke-linejoin="round"/>
<path d="M128.01 180.375V96.0372" stroke="white" stroke-width="1.10721" stroke-linecap="round" stroke-linejoin="round"/>
<path d="M187.501 180.375V96.0372" stroke="white" stroke-width="1.10721" stroke-linecap="round" stroke-linejoin="round"/>
</g>
<path d="M154.98 164.852C155.828 160.468 156.988 156.15 158.451 151.931C158.747 151.08 159.081 150.224 159.447 149.31C160.31 147.105 162.08 142.601 161.412 141.259C161.346 141.116 161.242 140.993 161.113 140.904C160.983 140.814 160.832 140.76 160.675 140.748C160.642 140.747 160.608 140.752 160.577 140.764C160.545 140.776 160.517 140.794 160.492 140.818C158.527 142.424 157.261 146.878 156.341 150.129L156.032 151.225C154.812 155.596 153.948 160.058 153.449 164.569" fill="#5C8194"/>
<path d="M154.98 164.852C155.828 160.468 156.988 156.15 158.451 151.931C158.747 151.08 159.081 150.224 159.447 149.31C160.31 147.105 162.08 142.601 161.412 141.259C161.346 141.116 161.242 140.993 161.113 140.904C160.983 140.814 160.832 140.76 160.675 140.748C160.642 140.747 160.608 140.752 160.577 140.764C160.545 140.776 160.517 140.794 160.492 140.818C158.527 142.424 157.261 146.878 156.341 150.129L156.032 151.225C154.812 155.596 153.948 160.058 153.449 164.569" stroke="#263238" stroke-width="1.10721" stroke-linecap="round" stroke-linejoin="round"/>
<path d="M157.897 165.06C158.711 160.933 159.812 156.868 161.192 152.895C161.469 152.082 161.822 151.232 162.156 150.337C163.535 146.828 165.249 142.481 164.014 139.992C163.707 139.372 163.236 138.847 162.652 138.476C162.067 138.105 161.392 137.902 160.7 137.888C159.969 137.881 159.26 138.133 158.697 138.6C156.032 140.774 154.684 145.53 153.6 149.348L153.292 150.438C152.072 154.771 151.202 159.195 150.69 163.668" fill="#5C8194"/>
<path d="M157.897 165.06C158.711 160.933 159.812 156.868 161.192 152.895C161.469 152.082 161.822 151.232 162.156 150.337C163.535 146.828 165.249 142.481 164.014 139.992C163.707 139.372 163.236 138.847 162.652 138.476C162.067 138.105 161.392 137.902 160.7 137.888C159.969 137.881 159.26 138.133 158.697 138.6C156.032 140.774 154.684 145.53 153.6 149.348L153.292 150.438C152.072 154.771 151.202 159.195 150.69 163.668" stroke="#263238" stroke-width="1.10721" stroke-linecap="round" stroke-linejoin="round"/>
<path d="M160.883 164.776C161.651 161.065 162.659 157.408 163.901 153.827C165.4 149.549 168.777 143.117 166.585 138.707C164.789 135.097 160.089 133.755 156.883 136.376C153.216 139.362 151.761 145.354 150.526 149.644C149.361 153.775 148.504 157.986 147.962 162.244" fill="#5C8194"/>
<path d="M160.883 164.776C161.651 161.065 162.659 157.408 163.901 153.827C165.4 149.549 168.777 143.117 166.585 138.707C164.789 135.097 160.089 133.755 156.883 136.376C153.216 139.362 151.761 145.354 150.526 149.644C149.361 153.775 148.504 157.986 147.962 162.244" stroke="#263238" stroke-width="1.10721" stroke-linecap="round" stroke-linejoin="round"/>
<path d="M164.021 163.907C164.706 160.816 165.572 157.768 166.616 154.778C166.862 154.067 167.177 153.273 167.511 152.422C169.3 147.867 171.53 142.191 169.155 137.416C168.371 135.84 167.166 134.511 165.674 133.577C164.182 132.643 162.461 132.14 160.7 132.124C158.646 132.117 156.654 132.828 155.068 134.133C150.998 137.453 149.398 143.18 148.069 147.773L147.767 148.838C146.705 152.577 145.899 156.385 145.354 160.234" fill="#5C8194"/>
<path d="M164.021 163.907C164.706 160.816 165.572 157.768 166.616 154.778C166.862 154.067 167.177 153.273 167.511 152.422C169.3 147.867 171.53 142.191 169.155 137.416C168.371 135.84 167.166 134.511 165.674 133.577C164.182 132.643 162.461 132.14 160.7 132.124C158.646 132.117 156.654 132.828 155.068 134.133C150.998 137.453 149.398 143.18 148.069 147.773L147.767 148.838C146.705 152.577 145.899 156.385 145.354 160.234" stroke="#263238" stroke-width="1.10721" stroke-linecap="round" stroke-linejoin="round"/>
<path d="M167.372 162.25C167.958 159.944 168.601 157.809 169.325 155.73C169.565 155.056 169.861 154.293 170.176 153.493C172.066 148.655 174.668 142.052 171.725 136.143C170.704 134.087 169.133 132.355 167.187 131.139C165.241 129.922 162.996 129.268 160.7 129.251C157.984 129.241 155.35 130.182 153.254 131.909C148.478 135.803 146.721 141.989 145.303 146.992L145.001 148.05C144.112 151.172 143.399 154.342 142.865 157.544" fill="#5C8194"/>
<path d="M167.372 162.25C167.958 159.944 168.601 157.809 169.325 155.73C169.565 155.056 169.861 154.293 170.176 153.493C172.066 148.655 174.668 142.052 171.725 136.143C170.704 134.087 169.133 132.355 167.187 131.139C165.241 129.922 162.996 129.268 160.7 129.251C157.984 129.241 155.35 130.182 153.254 131.909C148.478 135.803 146.721 141.989 145.303 146.992L145.001 148.05C144.112 151.172 143.399 154.342 142.865 157.544" stroke="#263238" stroke-width="1.10721" stroke-linecap="round" stroke-linejoin="round"/>
<path d="M170.831 159.447C171.461 154.835 175.178 149.367 175.543 142.972C175.877 137.113 173.949 133.358 172.582 131.475C172.257 131.011 172.051 130.474 171.981 129.912C171.91 129.35 171.978 128.779 172.179 128.249C173.093 125.564 173.062 122.648 172.091 119.984" fill="#5C8194"/>
<path d="M170.831 159.447C171.461 154.835 175.178 149.367 175.543 142.972C175.877 137.113 173.949 133.358 172.582 131.475C172.257 131.011 172.051 130.474 171.981 129.912C171.91 129.35 171.978 128.779 172.179 128.249C173.093 125.564 173.062 122.648 172.091 119.984" stroke="#263238" stroke-width="1.10721" stroke-linecap="round" stroke-linejoin="round"/>
<path d="M162.099 111.371C166.95 114.408 170.1 119.19 170.346 125.37C170.428 127.588 168.626 128.35 166.37 127.663C161.652 126.227 150.406 122.548 143.552 141.819C142.239 145.818 141.269 149.922 140.654 154.085" fill="#5C8194"/>
<path d="M162.099 111.371C166.95 114.408 170.1 119.19 170.346 125.37C170.428 127.588 168.626 128.35 166.37 127.663C161.652 126.227 150.406 122.548 143.552 141.819C142.239 145.818 141.269 149.922 140.654 154.085" stroke="#263238" stroke-width="1.10721" stroke-linecap="round" stroke-linejoin="round"/>
<path d="M152.46 111.686C155.487 111.645 158.479 112.346 161.173 113.728C165.778 116.204 168.676 122.025 167.196 123.505C165.551 125.15 162.496 121.181 153.153 125.011C148.661 126.851 145.473 130.599 143.306 134.858C142.329 136.803 141.503 138.821 140.836 140.893C139.968 143.559 139.253 146.272 138.694 149.02" fill="#5C8194"/>
<path d="M152.46 111.686C155.487 111.645 158.479 112.346 161.173 113.728C165.778 116.204 168.676 122.025 167.196 123.505C165.551 125.15 162.496 121.181 153.153 125.011C148.661 126.851 145.473 130.599 143.306 134.858C142.329 136.803 141.503 138.821 140.836 140.893C139.968 143.559 139.253 146.273 138.694 149.02" stroke="#263238" stroke-width="1.10721" stroke-linecap="round" stroke-linejoin="round"/>
<path d="M147.149 115.24C148.794 114.806 150.488 114.579 152.189 114.566C160.436 114.377 163.529 118.774 162.622 119.889C161.86 120.828 160.165 120.299 157.84 120.582C151.131 121.407 145.826 125.225 142.254 130.87C140.492 133.728 139.087 136.792 138.071 139.992C137.882 140.566 137.699 141.145 137.523 141.725" fill="#5C8194"/>
<path d="M147.149 115.24C148.794 114.806 150.488 114.579 152.189 114.566C160.436 114.377 163.529 118.774 162.622 119.889C161.86 120.828 160.165 120.299 157.84 120.582C151.131 121.407 145.826 125.225 142.254 130.87C140.492 133.728 139.087 136.792 138.071 139.992C137.882 140.566 137.699 141.145 137.523 141.725" stroke="#263238" stroke-width="1.10721" stroke-linecap="round" stroke-linejoin="round"/>
<path d="M143.262 119.984C146.01 117.764 149.472 116.617 153.002 116.758C154.048 116.758 156.631 117.098 156.977 118.087C157.437 119.385 153.241 117.621 147.162 121.672C139.369 126.869 138.424 131.796 138.424 131.796" fill="#5C8194"/>
<path d="M143.262 119.984C146.01 117.764 149.472 116.617 153.002 116.758C154.048 116.758 156.631 117.098 156.977 118.087C157.437 119.385 153.241 117.621 147.162 121.672C139.369 126.869 138.424 131.796 138.424 131.796" stroke="#263238" stroke-width="1.10721" stroke-linecap="round" stroke-linejoin="round"/>
<path d="M174.138 155.957C174.138 155.957 178.366 146.828 177.918 139.772C177.641 135.229 175.398 132.382 175.046 130.36C174.693 128.337 175.675 127.84 175.411 125.987" fill="#5C8194"/>
<path d="M174.138 155.957C174.138 155.957 178.366 146.828 177.918 139.772C177.641 135.229 175.398 132.382 175.046 130.36C174.693 128.337 175.675 127.84 175.411 125.987" stroke="#263238" stroke-width="1.10721" stroke-linecap="round" stroke-linejoin="round"/>
<path d="M123.505 112.984V100.094H136.395" fill="#5C8194"/>
<path d="M123.505 112.984V100.094H136.395" stroke="#263238" stroke-width="1.10721" stroke-linecap="round" stroke-linejoin="round"/>
<path d="M136.395 176.324H123.505V163.435" fill="#5C8194"/>
<path d="M136.395 176.324H123.505V163.435" stroke="#263238" stroke-width="1.10721" stroke-linecap="round" stroke-linejoin="round"/>
<path d="M192.005 112.984V100.094H179.115" fill="#5C8194"/>
<path d="M192.005 112.984V100.094H179.115" stroke="#263238" stroke-width="1.10721" stroke-linecap="round" stroke-linejoin="round"/>
<path d="M179.115 176.324H192.005V163.435" fill="#5C8194"/>
<path d="M179.115 176.324H192.005V163.435" stroke="#263238" stroke-width="1.10721" stroke-linecap="round" stroke-linejoin="round"/>
<path d="M246.758 294.84C243.394 289.8 239.866 284.483 236.968 280.079C233.264 274.466 230.593 270.365 230.593 270.365C229.175 263.731 227.165 261.129 225.143 255.679C223.121 250.23 224.79 245.372 225.628 238.625C226.466 231.878 225.143 225.59 224.438 221.325C223.732 217.06 224.557 213.035 224.438 212.09C224.318 211.145 220.292 206.168 218.768 202.495C218.077 200.856 217.112 199.348 215.914 198.034C214.59 196.519 212.934 195.331 211.075 194.563C210.301 194.258 209.493 194.047 208.669 193.933C206.779 193.662 205.254 193.964 203.729 193.964C201.594 193.964 197.096 190.298 194.135 189.712C193.585 189.603 193.03 189.525 192.471 189.479C190.021 189.246 187.431 189.479 184.565 189.706C181.698 189.932 178.366 187.217 175.682 186.367H175.638C175.044 186.159 174.41 186.09 173.786 186.165C170.944 186.638 165.596 187.11 165.596 187.11C165.596 187.11 165.123 183.443 164.884 178.466C164.84 177.603 164.777 176.772 164.701 175.946C164.424 172.872 163.983 170.125 163.913 167.611C163.913 166.981 163.913 166.307 163.913 165.677C164.147 162.137 164.039 159.377 163.913 153.934C163.913 153.752 163.913 153.556 163.913 153.361C163.913 151.666 163.913 150.047 163.813 148.586C163.617 145.039 162.83 142.418 159.302 141.876C156.221 141.404 154.092 142.941 152.788 148.037C151.484 153.134 150.539 152.775 150.186 160.234C149.833 167.693 148.163 172.444 148.403 176.23C148.642 180.016 147.811 187.362 147.811 187.362C146.393 186.65 145.089 187.242 144.843 187.834C144.598 188.427 143.552 194.235 142.714 198.381C141.983 202.066 138.625 205.474 137.39 208.013V208.07C137.258 208.344 137.149 208.629 137.063 208.921C136.351 211.529 136.71 217.111 136.71 224.204C136.71 231.298 134.933 238.657 136.71 243.388C137.088 244.352 137.618 245.249 138.279 246.047C141.007 249.417 146.015 252.346 150.57 257.72C156.24 264.474 160.285 269.451 164.071 271.706C166.786 273.307 167.977 274.617 168.481 276.343C168.679 277.092 168.783 277.862 168.79 278.636C168.84 280.148 169.659 281.301 171.045 283.216C173.207 286.146 175.105 289.262 176.715 292.528C178.233 295.571 180.558 301.348 183.015 307.749L246.758 294.84Z" fill="white"/>
<path opacity="0.4" d="M163.895 165.646C163.857 166.276 163.85 166.906 163.895 167.58C159.365 166.723 150.62 168.96 150.488 171.631C150.337 174.888 149.94 182.587 151.597 184.382C153.254 186.178 156.807 187.324 156.807 187.324C156.545 187.344 156.284 187.378 156.026 187.425H155.938C154.804 187.664 153.771 188.244 152.977 189.088C149.512 192.641 149.367 200.516 150.501 204.309C155.245 220.059 147.565 232.52 144.831 231.008C142.097 229.496 141.876 215.958 142.701 212.789C143.2 210.941 143.444 209.033 143.426 207.119C142.216 206.716 139.677 207.302 137.346 208.026V207.969C138.606 205.449 141.939 202.022 142.67 198.337C143.508 194.191 144.56 188.383 144.799 187.79C145.039 187.198 146.349 186.606 147.767 187.318C147.767 187.318 148.598 179.978 148.359 176.186C148.119 172.393 149.783 167.656 150.142 160.19C150.501 152.725 151.439 153.09 152.744 147.993C154.048 142.897 156.177 141.359 159.258 141.832C162.786 142.374 163.573 144.982 163.769 148.541C163.372 148.165 162.951 147.816 162.509 147.496C161.393 146.629 159.991 146.215 158.584 146.336C156.952 146.563 155.522 148.226 154.615 149.94C153.311 152.46 153.096 155.163 154.93 154.237C157.009 153.197 161.299 153.544 163.913 153.89C164.021 159.327 164.128 162.105 163.895 165.646Z" fill="#5C8194"/>
<path opacity="0.4" d="M168.733 278.617C168.726 277.843 168.622 277.073 168.424 276.324C167.927 274.598 166.736 273.288 164.014 271.687C160.234 269.432 156.196 264.455 150.513 257.701C145.958 252.302 140.95 249.398 138.222 246.028C141.656 247.886 146.318 246.928 147.785 249.871C149.921 254.117 159.951 260.581 159.951 260.581C169.741 270.27 168.733 278.617 168.733 278.617Z" fill="#5C8194"/>
<path opacity="0.4" d="M175.581 186.341C174.428 186.108 171.303 193.813 171.007 196.547C170.22 203.635 173.855 225.483 169.18 224.992C167.246 224.79 164.978 214.584 164.846 209.828C164.424 195.382 165.003 189.378 165.003 189.378C165.003 189.378 163.97 181.377 164.663 175.927C164.739 176.746 164.802 177.578 164.846 178.447C165.085 183.424 165.558 187.091 165.558 187.091C165.558 187.091 170.887 186.619 173.748 186.146C174.366 186.072 174.992 186.139 175.581 186.341Z" fill="#5C8194"/>
<path opacity="0.4" d="M192.415 189.473C189.895 189.699 187.375 192.163 185.302 192.623C182.782 193.158 178.151 187.482 175.625 186.373C178.309 187.223 181.673 189.895 184.508 189.712C187.343 189.529 189.964 189.239 192.415 189.473Z" fill="#5C8194"/>
<path opacity="0.4" d="M208.637 193.927C207.388 195.49 206.384 197.234 205.657 199.099C203.629 205.657 205.544 230.473 202.274 226.409C198.015 221.13 202.463 202.816 199.357 195.823C198.374 193.586 194.865 190.008 194.103 189.706C197.064 190.291 201.562 193.958 203.698 193.958C205.223 193.958 206.753 193.656 208.637 193.927Z" fill="#5C8194"/>
<path opacity="0.4" d="M236.956 280.073C233.636 276.331 230.158 272.765 227.884 271.429C222.346 268.166 220.758 264.789 220.28 259.163C219.801 253.537 221.231 253.657 222.888 248.094C224.545 242.531 221.464 235.651 221.703 237.138C221.943 238.625 219.328 248.919 217.407 249.43C215.485 249.94 214.836 242.997 214.597 237.34C214.358 231.682 217.438 205.336 216.575 200.17C216.458 199.42 216.224 198.693 215.882 198.015C217.08 199.329 218.045 200.837 218.736 202.476C220.28 206.149 224.305 211.126 224.406 212.071C224.507 213.016 223.694 217.048 224.406 221.306C225.118 225.565 226.422 231.846 225.597 238.606C224.771 245.366 223.077 250.211 225.112 255.66C227.147 261.11 229.144 263.712 230.561 270.346C230.58 270.358 233.251 274.459 236.956 280.073Z" fill="#5C8194"/>
<path opacity="0.4" d="M186.953 203.49C188.213 204.813 189.006 222.151 189.718 226.416C190.43 230.681 188.219 240.906 186.953 237.794C185.686 234.681 181.824 198.097 186.953 203.49Z" fill="#5C8194"/>
<path d="M182.07 305.298C179.978 299.893 178.044 295.161 176.721 292.509C175.111 289.243 173.214 286.127 171.051 283.198C169.665 281.308 168.846 280.129 168.796 278.617C168.789 277.843 168.685 277.073 168.487 276.324C167.99 274.598 166.799 273.288 164.077 271.687C160.297 269.432 156.259 264.455 150.576 257.701C146.021 252.302 141.013 249.398 138.285 246.028C137.624 245.23 137.095 244.333 136.716 243.369C134.94 238.638 136.716 231.286 136.716 224.185C136.716 217.085 136.357 211.51 137.069 208.902C137.155 208.61 137.265 208.325 137.397 208.051V207.994C138.657 205.474 141.989 202.047 142.72 198.362C143.558 194.216 144.61 188.408 144.85 187.816C145.089 187.223 146.399 186.631 147.817 187.343C147.817 187.343 148.649 180.004 148.409 176.211C148.17 172.418 149.833 167.681 150.192 160.215C150.551 152.75 151.49 153.115 152.794 148.018C154.098 142.922 156.227 141.385 159.308 141.857C162.836 142.399 163.624 145.007 163.819 148.567C163.901 150.028 163.888 151.647 163.92 153.342C163.92 153.537 163.92 153.733 163.92 153.915C164.033 159.34 164.14 162.105 163.92 165.658C163.882 166.288 163.876 166.918 163.92 167.593C163.989 170.113 164.43 172.853 164.707 175.927C164.783 176.746 164.846 177.578 164.89 178.447C165.129 183.424 165.602 187.091 165.602 187.091C165.602 187.091 170.932 186.619 173.792 186.146C174.417 186.071 175.05 186.14 175.644 186.348H175.688C178.372 187.198 181.736 189.869 184.571 189.687C187.406 189.504 190.027 189.227 192.478 189.46C193.036 189.506 193.591 189.584 194.141 189.693C197.102 190.279 201.6 193.945 203.736 193.945C205.26 193.945 206.791 193.643 208.675 193.914C209.499 194.028 210.307 194.239 211.082 194.544C212.94 195.312 214.596 196.501 215.92 198.015C217.118 199.329 218.083 200.837 218.774 202.476C220.317 206.149 224.343 211.126 224.444 212.071C224.545 213.016 223.732 217.048 224.444 221.306C225.156 225.565 226.46 231.846 225.635 238.606C224.809 245.366 223.115 250.211 225.149 255.66C227.184 261.11 229.181 263.712 230.599 270.346C230.599 270.346 233.27 274.447 236.975 280.06C239.545 283.96 242.607 288.597 245.618 293.101" stroke="#263238" stroke-width="1.10721" stroke-linecap="round" stroke-linejoin="round"/>
<path d="M147.785 187.324C147.785 192.541 147.313 199.011 146.525 201.701C145.738 204.391 146.267 213.387 144.818 217.174" stroke="#263238" stroke-width="1.10721" stroke-linecap="round" stroke-linejoin="round"/>
<path d="M150.475 191.432C150.475 191.432 154.104 187.324 156.775 187.324C159.447 187.324 162.149 189.063 164.965 189.378C167.782 189.693 170.768 187.595 173.496 187.091" stroke="#263238" stroke-width="1.10721" stroke-linecap="round" stroke-linejoin="round"/>
<path d="M152.523 172.425C152.523 172.425 157.424 170.636 159.951 172.425" stroke="#263238" stroke-width="1.10721" stroke-linecap="round" stroke-linejoin="round"/>
<path d="M156.24 170.1C156.24 170.1 157.739 169.69 159.951 170.761" stroke="#263238" stroke-width="1.10721" stroke-linecap="round" stroke-linejoin="round"/>
<path d="M154.93 157.5C156.589 157.131 158.31 157.131 159.97 157.5" stroke="#263238" stroke-width="1.10721" stroke-linecap="round" stroke-linejoin="round"/>
<path d="M137.34 207.969C137.34 207.969 140.49 206.438 141.75 206.281" stroke="#263238" stroke-width="1.10721" stroke-linecap="round" stroke-linejoin="round"/>
<path d="M145.662 212.82C145.662 212.82 143.772 215.756 143.42 217.174" stroke="#263238" stroke-width="1.10721" stroke-linecap="round" stroke-linejoin="round"/>
<path d="M154.93 144.686C154.93 144.686 154.174 150.715 154.93 151.25C155.686 151.786 161.526 152.296 162.005 151.25C162.483 150.205 162.565 145.788 162.565 145.788C162.565 145.788 159.069 139.784 154.93 144.686Z" stroke="#263238" stroke-width="1.10721" stroke-linecap="round" stroke-linejoin="round"/>
<path d="M142.695 198.343C142.695 198.343 147.54 195.899 147.653 192.402C147.766 188.906 146.343 188.943 144.541 188.924" stroke="#263238" stroke-width="1.10721" stroke-linecap="round" stroke-linejoin="round"/>
<path d="M218.226 206.281C218.383 211.806 216.808 227.915 216.644 230.284C216.481 232.653 216.644 238.707 216.644 238.707" stroke="#263238" stroke-width="1.10721" stroke-linecap="round" stroke-linejoin="round"/>
<path d="M183.639 193.63C188.849 201.19 183.639 198.343 186.952 234.549" stroke="#263238" stroke-width="1.10721" stroke-linecap="round" stroke-linejoin="round"/>
<path d="M230.58 270.358C230.58 270.358 225.962 266.767 225.168 264.688" stroke="#263238" stroke-width="1.10721" stroke-linecap="round" stroke-linejoin="round"/>
<path d="M166.106 268.657C167.492 270.957 168.368 275.997 168.418 276.305" stroke="#263238" stroke-width="1.10721" stroke-linecap="round" stroke-linejoin="round"/>
</svg>
